<mxfile host="app.diagrams.net" modified="2021-03-15T02:23:55.276Z" agent="5.0 (Windows NT 10.0; Win64; x64) AppleWebKit/537.36 (KHTML, like Gecko) Chrome/87.0.4280.88 Safari/537.36" etag="eG17iU5DXfWnPUvRw7Ad" version="14.3.0" type="github">
  <diagram id="ahC_yUcN1st9t9DQTWyl" name="Page-1">
    <mxGraphModel dx="1634" dy="933" grid="1" gridSize="10" guides="1" tooltips="1" connect="1" arrows="1" fold="1" page="1" pageScale="1" pageWidth="1180" pageHeight="790" math="0" shadow="0">
      <root>
        <mxCell id="0" />
        <mxCell id="6qygh8IlFuuTyOwgghLc-59" value="Metadata Contribution" style="" visible="0" parent="0" />
        <mxCell id="6qygh8IlFuuTyOwgghLc-61" value="" style="swimlane;shadow=0;strokeColor=#4277BB;fontColor=#4277BB;align=right;startSize=0;collapsible=0;strokeWidth=3;fillColor=#ECBF1B;fontSize=14;horizontal=1;" vertex="1" parent="6qygh8IlFuuTyOwgghLc-59">
          <mxGeometry x="22" y="167" width="1138" height="594" as="geometry" />
        </mxCell>
        <mxCell id="6qygh8IlFuuTyOwgghLc-97" style="edgeStyle=orthogonalEdgeStyle;rounded=0;orthogonalLoop=1;jettySize=auto;html=1;exitX=1;exitY=0.5;exitDx=0;exitDy=0;entryX=0;entryY=0.5;entryDx=0;entryDy=0;strokeWidth=2;fontColor=#4277BB;strokeColor=#FF8000;" edge="1" parent="6qygh8IlFuuTyOwgghLc-61">
          <mxGeometry relative="1" as="geometry">
            <mxPoint x="722" y="313.6199999999999" as="sourcePoint" />
            <mxPoint x="811" y="386.4999999999998" as="targetPoint" />
            <Array as="points">
              <mxPoint x="758" y="314" />
              <mxPoint x="758" y="387" />
            </Array>
          </mxGeometry>
        </mxCell>
        <mxCell id="6qygh8IlFuuTyOwgghLc-99" style="edgeStyle=orthogonalEdgeStyle;rounded=0;orthogonalLoop=1;jettySize=auto;html=1;exitX=1;exitY=0.5;exitDx=0;exitDy=0;strokeWidth=2;fontColor=#4277BB;strokeColor=#FF8000;" edge="1" parent="6qygh8IlFuuTyOwgghLc-61">
          <mxGeometry relative="1" as="geometry">
            <mxPoint x="526.0000000000002" y="312.9981882416887" as="sourcePoint" />
            <mxPoint x="559.9999999999998" y="313.9411764705883" as="targetPoint" />
          </mxGeometry>
        </mxCell>
        <mxCell id="6qygh8IlFuuTyOwgghLc-109" style="edgeStyle=orthogonalEdgeStyle;rounded=0;orthogonalLoop=1;jettySize=auto;html=1;strokeWidth=2;fontColor=#4277BB;entryX=0;entryY=0.5;entryDx=0;entryDy=0;strokeColor=#FF8000;" edge="1" parent="6qygh8IlFuuTyOwgghLc-61">
          <mxGeometry relative="1" as="geometry">
            <mxPoint x="619.9999999999998" y="313.9411764705883" as="sourcePoint" />
            <mxPoint x="662" y="313.6199999999999" as="targetPoint" />
            <Array as="points">
              <mxPoint x="648" y="314" />
              <mxPoint x="648" y="314" />
            </Array>
          </mxGeometry>
        </mxCell>
        <mxCell id="6qygh8IlFuuTyOwgghLc-110" value="" style="endArrow=classic;startArrow=classic;html=1;strokeWidth=2;fontColor=#4277BB;exitX=0.5;exitY=0;exitDx=0;exitDy=0;entryX=0.5;entryY=1;entryDx=0;entryDy=0;strokeColor=#FF8000;" edge="1" parent="6qygh8IlFuuTyOwgghLc-61">
          <mxGeometry width="50" height="50" relative="1" as="geometry">
            <mxPoint x="921" y="333" as="sourcePoint" />
            <mxPoint x="921" y="307" as="targetPoint" />
          </mxGeometry>
        </mxCell>
        <mxCell id="6qygh8IlFuuTyOwgghLc-111" value="" style="endArrow=classic;startArrow=classic;html=1;strokeWidth=2;fontColor=#4277BB;exitX=0.5;exitY=0;exitDx=0;exitDy=0;entryX=0.5;entryY=1;entryDx=0;entryDy=0;strokeColor=#FF8000;" edge="1" parent="6qygh8IlFuuTyOwgghLc-61">
          <mxGeometry width="50" height="50" relative="1" as="geometry">
            <mxPoint x="921" y="465" as="sourcePoint" />
            <mxPoint x="921" y="440" as="targetPoint" />
            <Array as="points" />
          </mxGeometry>
        </mxCell>
        <mxCell id="6qygh8IlFuuTyOwgghLc-112" value="" style="endArrow=classic;startArrow=classic;html=1;strokeWidth=2;fontColor=#4277BB;exitX=0.799;exitY=-0.001;exitDx=0;exitDy=0;exitPerimeter=0;strokeColor=#FF8000;" edge="1" parent="6qygh8IlFuuTyOwgghLc-61">
          <mxGeometry width="50" height="50" relative="1" as="geometry">
            <mxPoint x="589.751" y="442.86300000000006" as="sourcePoint" />
            <mxPoint x="589.9420943698983" y="343.8600000000001" as="targetPoint" />
          </mxGeometry>
        </mxCell>
        <mxCell id="6qygh8IlFuuTyOwgghLc-131" style="edgeStyle=orthogonalEdgeStyle;rounded=0;orthogonalLoop=1;jettySize=auto;html=1;exitX=1;exitY=0.5;exitDx=0;exitDy=0;fontColor=#4277BB;strokeWidth=2;strokeColor=#FF8000;entryX=-0.015;entryY=0.665;entryDx=0;entryDy=0;entryPerimeter=0;" edge="1" parent="6qygh8IlFuuTyOwgghLc-59">
          <mxGeometry relative="1" as="geometry">
            <mxPoint x="204.99999999999977" y="582" as="sourcePoint" />
            <mxPoint x="389.82240000000024" y="499.7975903614456" as="targetPoint" />
            <Array as="points">
              <mxPoint x="220" y="582" />
              <mxPoint x="220" y="520" />
              <mxPoint x="310" y="520" />
              <mxPoint x="310" y="500" />
            </Array>
          </mxGeometry>
        </mxCell>
        <mxCell id="6qygh8IlFuuTyOwgghLc-375" value="" style="rounded=0;whiteSpace=wrap;html=1;shadow=0;glass=0;sketch=0;fontSize=16;fontColor=#4277BB;fillColor=none;strokeWidth=2;strokeColor=#FF8000;" vertex="1" parent="6qygh8IlFuuTyOwgghLc-59">
          <mxGeometry x="262" y="620" width="430" height="117" as="geometry" />
        </mxCell>
        <mxCell id="6qygh8IlFuuTyOwgghLc-391" style="edgeStyle=orthogonalEdgeStyle;rounded=0;orthogonalLoop=1;jettySize=auto;html=1;exitX=0.362;exitY=1.008;exitDx=0;exitDy=0;strokeColor=#FF8000;strokeWidth=2;fontSize=16;fontColor=#4277BB;exitPerimeter=0;" edge="1" parent="6qygh8IlFuuTyOwgghLc-59" source="6qygh8IlFuuTyOwgghLc-392">
          <mxGeometry relative="1" as="geometry">
            <mxPoint x="612" y="430" as="targetPoint" />
            <Array as="points" />
          </mxGeometry>
        </mxCell>
        <mxCell id="6qygh8IlFuuTyOwgghLc-392" value="" style="rounded=0;whiteSpace=wrap;html=1;shadow=0;glass=0;sketch=0;strokeColor=#FF8000;strokeWidth=2;fillColor=none;fontSize=16;fontColor=#4277BB;" vertex="1" parent="6qygh8IlFuuTyOwgghLc-59">
          <mxGeometry x="565" y="255" width="130" height="108" as="geometry" />
        </mxCell>
        <mxCell id="6qygh8IlFuuTyOwgghLc-356" value="Metadata Search and Discovery" visible="0" parent="0" />
        <mxCell id="6qygh8IlFuuTyOwgghLc-357" value="" style="swimlane;shadow=0;strokeColor=#4277BB;fontColor=#4277BB;align=right;startSize=0;collapsible=0;strokeWidth=3;fillColor=#ECBF1B;fontSize=14;horizontal=1;" vertex="1" parent="6qygh8IlFuuTyOwgghLc-356">
          <mxGeometry x="22" y="167" width="1138" height="594" as="geometry" />
        </mxCell>
        <mxCell id="6qygh8IlFuuTyOwgghLc-358" style="edgeStyle=orthogonalEdgeStyle;rounded=0;orthogonalLoop=1;jettySize=auto;html=1;exitX=1;exitY=0.5;exitDx=0;exitDy=0;entryX=0;entryY=0.5;entryDx=0;entryDy=0;strokeWidth=2;fontColor=#4277BB;strokeColor=#FF8000;" edge="1" parent="6qygh8IlFuuTyOwgghLc-357">
          <mxGeometry relative="1" as="geometry">
            <mxPoint x="722" y="313.6199999999999" as="sourcePoint" />
            <mxPoint x="811" y="386.4999999999998" as="targetPoint" />
            <Array as="points">
              <mxPoint x="758" y="314" />
              <mxPoint x="758" y="387" />
            </Array>
          </mxGeometry>
        </mxCell>
        <mxCell id="6qygh8IlFuuTyOwgghLc-359" style="edgeStyle=orthogonalEdgeStyle;rounded=0;orthogonalLoop=1;jettySize=auto;html=1;exitX=1;exitY=0.5;exitDx=0;exitDy=0;strokeWidth=2;fontColor=#4277BB;strokeColor=#FF8000;" edge="1" parent="6qygh8IlFuuTyOwgghLc-357">
          <mxGeometry relative="1" as="geometry">
            <mxPoint x="526.0000000000002" y="312.9981882416887" as="sourcePoint" />
            <mxPoint x="559.9999999999998" y="313.9411764705883" as="targetPoint" />
          </mxGeometry>
        </mxCell>
        <mxCell id="6qygh8IlFuuTyOwgghLc-360" style="edgeStyle=orthogonalEdgeStyle;rounded=0;orthogonalLoop=1;jettySize=auto;html=1;strokeWidth=2;fontColor=#4277BB;entryX=0;entryY=0.5;entryDx=0;entryDy=0;strokeColor=#FF8000;" edge="1" parent="6qygh8IlFuuTyOwgghLc-357">
          <mxGeometry relative="1" as="geometry">
            <mxPoint x="619.9999999999998" y="313.9411764705883" as="sourcePoint" />
            <mxPoint x="662" y="313.6199999999999" as="targetPoint" />
            <Array as="points">
              <mxPoint x="648" y="314" />
              <mxPoint x="648" y="314" />
            </Array>
          </mxGeometry>
        </mxCell>
        <mxCell id="6qygh8IlFuuTyOwgghLc-361" value="" style="endArrow=classic;startArrow=classic;html=1;strokeWidth=2;fontColor=#4277BB;exitX=0.5;exitY=0;exitDx=0;exitDy=0;entryX=0.5;entryY=1;entryDx=0;entryDy=0;strokeColor=#FF8000;" edge="1" parent="6qygh8IlFuuTyOwgghLc-357">
          <mxGeometry width="50" height="50" relative="1" as="geometry">
            <mxPoint x="921" y="333" as="sourcePoint" />
            <mxPoint x="921" y="307" as="targetPoint" />
          </mxGeometry>
        </mxCell>
        <mxCell id="6qygh8IlFuuTyOwgghLc-362" value="" style="endArrow=classic;startArrow=classic;html=1;strokeWidth=2;fontColor=#4277BB;exitX=0.5;exitY=0;exitDx=0;exitDy=0;entryX=0.5;entryY=1;entryDx=0;entryDy=0;strokeColor=#FF8000;" edge="1" parent="6qygh8IlFuuTyOwgghLc-357">
          <mxGeometry width="50" height="50" relative="1" as="geometry">
            <mxPoint x="921" y="465" as="sourcePoint" />
            <mxPoint x="921" y="440" as="targetPoint" />
            <Array as="points" />
          </mxGeometry>
        </mxCell>
        <mxCell id="6qygh8IlFuuTyOwgghLc-363" value="" style="endArrow=classic;startArrow=classic;html=1;strokeWidth=2;fontColor=#4277BB;exitX=0.799;exitY=-0.001;exitDx=0;exitDy=0;exitPerimeter=0;strokeColor=#FF8000;" edge="1" parent="6qygh8IlFuuTyOwgghLc-357">
          <mxGeometry width="50" height="50" relative="1" as="geometry">
            <mxPoint x="589.751" y="442.86300000000006" as="sourcePoint" />
            <mxPoint x="589.9420943698983" y="343.8600000000001" as="targetPoint" />
          </mxGeometry>
        </mxCell>
        <mxCell id="6qygh8IlFuuTyOwgghLc-383" value="" style="rounded=0;whiteSpace=wrap;html=1;shadow=0;glass=0;sketch=0;fontSize=16;fontColor=#4277BB;fillColor=none;strokeWidth=2;strokeColor=#FF8000;" vertex="1" parent="6qygh8IlFuuTyOwgghLc-357">
          <mxGeometry x="240" y="453" width="320" height="117" as="geometry" />
        </mxCell>
        <mxCell id="6qygh8IlFuuTyOwgghLc-366" style="edgeStyle=orthogonalEdgeStyle;rounded=0;orthogonalLoop=1;jettySize=auto;html=1;fontColor=#4277BB;strokeWidth=2;entryX=-0.018;entryY=0.587;entryDx=0;entryDy=0;strokeColor=#FF8000;entryPerimeter=0;" edge="1" parent="6qygh8IlFuuTyOwgghLc-356">
          <mxGeometry relative="1" as="geometry">
            <mxPoint x="204.99999999999977" y="508.0000000000002" as="sourcePoint" />
            <mxPoint x="389.3548800000001" y="490.4378729957423" as="targetPoint" />
            <Array as="points">
              <mxPoint x="300" y="508" />
              <mxPoint x="300" y="490" />
            </Array>
          </mxGeometry>
        </mxCell>
        <mxCell id="6qygh8IlFuuTyOwgghLc-368" value="" style="endArrow=classic;startArrow=classic;html=1;strokeWidth=2;fontColor=#4277BB;strokeColor=#FF8000;" edge="1" parent="6qygh8IlFuuTyOwgghLc-356">
          <mxGeometry width="50" height="50" relative="1" as="geometry">
            <mxPoint x="611.9999999999998" y="430" as="sourcePoint" />
            <mxPoint x="612.1920943698983" y="370" as="targetPoint" />
          </mxGeometry>
        </mxCell>
        <object label="Data Analytics" id="6qygh8IlFuuTyOwgghLc-393">
          <mxCell style="" visible="0" parent="0" />
        </object>
        <mxCell id="6qygh8IlFuuTyOwgghLc-394" value="" style="swimlane;shadow=0;strokeColor=#4277BB;fontColor=#4277BB;align=right;startSize=0;collapsible=0;strokeWidth=3;fillColor=#ECBF1B;fontSize=14;horizontal=1;" vertex="1" parent="6qygh8IlFuuTyOwgghLc-393">
          <mxGeometry x="22" y="167" width="1138" height="594" as="geometry" />
        </mxCell>
        <mxCell id="6qygh8IlFuuTyOwgghLc-395" style="edgeStyle=orthogonalEdgeStyle;rounded=0;orthogonalLoop=1;jettySize=auto;html=1;exitX=1;exitY=0.5;exitDx=0;exitDy=0;entryX=0;entryY=0.5;entryDx=0;entryDy=0;strokeWidth=2;fontColor=#4277BB;strokeColor=#FF8000;" edge="1" parent="6qygh8IlFuuTyOwgghLc-394">
          <mxGeometry relative="1" as="geometry">
            <mxPoint x="722" y="313.6199999999999" as="sourcePoint" />
            <mxPoint x="811" y="386.4999999999998" as="targetPoint" />
            <Array as="points">
              <mxPoint x="758" y="314" />
              <mxPoint x="758" y="387" />
            </Array>
          </mxGeometry>
        </mxCell>
        <mxCell id="6qygh8IlFuuTyOwgghLc-396" style="edgeStyle=orthogonalEdgeStyle;rounded=0;orthogonalLoop=1;jettySize=auto;html=1;exitX=1;exitY=0.5;exitDx=0;exitDy=0;strokeWidth=2;fontColor=#4277BB;strokeColor=#FF8000;" edge="1" parent="6qygh8IlFuuTyOwgghLc-394">
          <mxGeometry relative="1" as="geometry">
            <mxPoint x="526.0000000000002" y="312.9981882416887" as="sourcePoint" />
            <mxPoint x="559.9999999999998" y="313.9411764705883" as="targetPoint" />
          </mxGeometry>
        </mxCell>
        <mxCell id="6qygh8IlFuuTyOwgghLc-397" style="edgeStyle=orthogonalEdgeStyle;rounded=0;orthogonalLoop=1;jettySize=auto;html=1;strokeWidth=2;fontColor=#4277BB;entryX=0;entryY=0.5;entryDx=0;entryDy=0;strokeColor=#FF8000;" edge="1" parent="6qygh8IlFuuTyOwgghLc-394">
          <mxGeometry relative="1" as="geometry">
            <mxPoint x="619.9999999999998" y="313.9411764705883" as="sourcePoint" />
            <mxPoint x="662" y="313.6199999999999" as="targetPoint" />
            <Array as="points">
              <mxPoint x="648" y="314" />
              <mxPoint x="648" y="314" />
            </Array>
          </mxGeometry>
        </mxCell>
        <mxCell id="6qygh8IlFuuTyOwgghLc-398" value="" style="endArrow=classic;startArrow=classic;html=1;strokeWidth=2;fontColor=#4277BB;exitX=0.5;exitY=0;exitDx=0;exitDy=0;entryX=0.5;entryY=1;entryDx=0;entryDy=0;strokeColor=#FF8000;" edge="1" parent="6qygh8IlFuuTyOwgghLc-394">
          <mxGeometry width="50" height="50" relative="1" as="geometry">
            <mxPoint x="921" y="333" as="sourcePoint" />
            <mxPoint x="921" y="307" as="targetPoint" />
          </mxGeometry>
        </mxCell>
        <mxCell id="6qygh8IlFuuTyOwgghLc-399" value="" style="endArrow=classic;startArrow=classic;html=1;strokeWidth=2;fontColor=#4277BB;exitX=0.5;exitY=0;exitDx=0;exitDy=0;entryX=0.5;entryY=1;entryDx=0;entryDy=0;strokeColor=#FF8000;" edge="1" parent="6qygh8IlFuuTyOwgghLc-394">
          <mxGeometry width="50" height="50" relative="1" as="geometry">
            <mxPoint x="921" y="465" as="sourcePoint" />
            <mxPoint x="921" y="440" as="targetPoint" />
            <Array as="points" />
          </mxGeometry>
        </mxCell>
        <mxCell id="6qygh8IlFuuTyOwgghLc-400" value="" style="endArrow=classic;startArrow=classic;html=1;strokeWidth=2;fontColor=#4277BB;exitX=0.799;exitY=-0.001;exitDx=0;exitDy=0;exitPerimeter=0;strokeColor=#FF8000;" edge="1" parent="6qygh8IlFuuTyOwgghLc-394">
          <mxGeometry width="50" height="50" relative="1" as="geometry">
            <mxPoint x="589.751" y="442.86300000000006" as="sourcePoint" />
            <mxPoint x="589.9420943698983" y="343.8600000000001" as="targetPoint" />
          </mxGeometry>
        </mxCell>
        <mxCell id="6qygh8IlFuuTyOwgghLc-408" style="edgeStyle=orthogonalEdgeStyle;rounded=0;orthogonalLoop=1;jettySize=auto;html=1;exitX=1;exitY=0.5;exitDx=0;exitDy=0;strokeColor=#FF8000;strokeWidth=2;fontSize=16;fontColor=#4277BB;" edge="1" parent="6qygh8IlFuuTyOwgghLc-394">
          <mxGeometry relative="1" as="geometry">
            <mxPoint x="368" y="313" as="targetPoint" />
            <mxPoint x="183" y="273" as="sourcePoint" />
            <Array as="points">
              <mxPoint x="190" y="273" />
              <mxPoint x="278" y="273" />
              <mxPoint x="278" y="313" />
            </Array>
          </mxGeometry>
        </mxCell>
        <mxCell id="6qygh8IlFuuTyOwgghLc-404" value="" style="rounded=0;whiteSpace=wrap;html=1;shadow=0;glass=0;sketch=0;strokeColor=#FF8000;strokeWidth=2;fillColor=none;fontSize=16;fontColor=#4277BB;" vertex="1" parent="6qygh8IlFuuTyOwgghLc-394">
          <mxGeometry x="360" y="88" width="90" height="92" as="geometry" />
        </mxCell>
        <mxCell id="6qygh8IlFuuTyOwgghLc-402" value="" style="rounded=0;whiteSpace=wrap;html=1;shadow=0;glass=0;sketch=0;fontSize=16;fontColor=#4277BB;fillColor=none;strokeWidth=2;strokeColor=#FF8000;" vertex="1" parent="6qygh8IlFuuTyOwgghLc-393">
          <mxGeometry x="262" y="620" width="320" height="117" as="geometry" />
        </mxCell>
        <mxCell id="6qygh8IlFuuTyOwgghLc-403" style="edgeStyle=orthogonalEdgeStyle;rounded=0;orthogonalLoop=1;jettySize=auto;html=1;exitX=0.362;exitY=1.008;exitDx=0;exitDy=0;strokeColor=#FF8000;strokeWidth=2;fontSize=16;fontColor=#4277BB;exitPerimeter=0;" edge="1" parent="6qygh8IlFuuTyOwgghLc-393" source="6qygh8IlFuuTyOwgghLc-404">
          <mxGeometry relative="1" as="geometry">
            <mxPoint x="612" y="430" as="targetPoint" />
            <Array as="points" />
          </mxGeometry>
        </mxCell>
        <object label="Machine Learning and AI" id="6qygh8IlFuuTyOwgghLc-410">
          <mxCell style="" visible="0" parent="0" />
        </object>
        <mxCell id="6qygh8IlFuuTyOwgghLc-411" value="" style="swimlane;shadow=0;strokeColor=#4277BB;fontColor=#4277BB;align=right;startSize=0;collapsible=0;strokeWidth=3;fillColor=#ECBF1B;fontSize=14;horizontal=1;" vertex="1" parent="6qygh8IlFuuTyOwgghLc-410">
          <mxGeometry x="22" y="167" width="1138" height="594" as="geometry" />
        </mxCell>
        <mxCell id="6qygh8IlFuuTyOwgghLc-412" style="edgeStyle=orthogonalEdgeStyle;rounded=0;orthogonalLoop=1;jettySize=auto;html=1;exitX=1;exitY=0.5;exitDx=0;exitDy=0;entryX=0;entryY=0.5;entryDx=0;entryDy=0;strokeWidth=2;fontColor=#4277BB;strokeColor=#FF8000;" edge="1" parent="6qygh8IlFuuTyOwgghLc-411">
          <mxGeometry relative="1" as="geometry">
            <mxPoint x="722" y="313.6199999999999" as="sourcePoint" />
            <mxPoint x="811" y="386.4999999999998" as="targetPoint" />
            <Array as="points">
              <mxPoint x="758" y="314" />
              <mxPoint x="758" y="387" />
            </Array>
          </mxGeometry>
        </mxCell>
        <mxCell id="6qygh8IlFuuTyOwgghLc-413" style="edgeStyle=orthogonalEdgeStyle;rounded=0;orthogonalLoop=1;jettySize=auto;html=1;exitX=1;exitY=0.5;exitDx=0;exitDy=0;strokeWidth=2;fontColor=#4277BB;strokeColor=#FF8000;" edge="1" parent="6qygh8IlFuuTyOwgghLc-411">
          <mxGeometry relative="1" as="geometry">
            <mxPoint x="526.0000000000002" y="312.9981882416887" as="sourcePoint" />
            <mxPoint x="559.9999999999998" y="313.9411764705883" as="targetPoint" />
          </mxGeometry>
        </mxCell>
        <mxCell id="6qygh8IlFuuTyOwgghLc-414" style="edgeStyle=orthogonalEdgeStyle;rounded=0;orthogonalLoop=1;jettySize=auto;html=1;strokeWidth=2;fontColor=#4277BB;entryX=0;entryY=0.5;entryDx=0;entryDy=0;strokeColor=#FF8000;" edge="1" parent="6qygh8IlFuuTyOwgghLc-411">
          <mxGeometry relative="1" as="geometry">
            <mxPoint x="619.9999999999998" y="313.9411764705883" as="sourcePoint" />
            <mxPoint x="662" y="313.6199999999999" as="targetPoint" />
            <Array as="points">
              <mxPoint x="648" y="314" />
              <mxPoint x="648" y="314" />
            </Array>
          </mxGeometry>
        </mxCell>
        <mxCell id="6qygh8IlFuuTyOwgghLc-415" value="" style="endArrow=classic;startArrow=classic;html=1;strokeWidth=2;fontColor=#4277BB;exitX=0.5;exitY=0;exitDx=0;exitDy=0;entryX=0.5;entryY=1;entryDx=0;entryDy=0;strokeColor=#FF8000;" edge="1" parent="6qygh8IlFuuTyOwgghLc-411">
          <mxGeometry width="50" height="50" relative="1" as="geometry">
            <mxPoint x="921" y="333" as="sourcePoint" />
            <mxPoint x="921" y="307" as="targetPoint" />
          </mxGeometry>
        </mxCell>
        <mxCell id="6qygh8IlFuuTyOwgghLc-417" value="" style="endArrow=classic;startArrow=classic;html=1;strokeWidth=2;fontColor=#4277BB;exitX=0.799;exitY=-0.001;exitDx=0;exitDy=0;exitPerimeter=0;strokeColor=#FF8000;" edge="1" parent="6qygh8IlFuuTyOwgghLc-411">
          <mxGeometry width="50" height="50" relative="1" as="geometry">
            <mxPoint x="589.751" y="442.86300000000006" as="sourcePoint" />
            <mxPoint x="589.9420943698983" y="343.8600000000001" as="targetPoint" />
          </mxGeometry>
        </mxCell>
        <mxCell id="6qygh8IlFuuTyOwgghLc-419" value="" style="rounded=0;whiteSpace=wrap;html=1;shadow=0;glass=0;sketch=0;strokeColor=#FF8000;strokeWidth=2;fillColor=none;fontSize=16;fontColor=#4277BB;" vertex="1" parent="6qygh8IlFuuTyOwgghLc-411">
          <mxGeometry x="360" y="88" width="90" height="92" as="geometry" />
        </mxCell>
        <mxCell id="6qygh8IlFuuTyOwgghLc-423" value="" style="rounded=0;whiteSpace=wrap;html=1;shadow=0;glass=0;sketch=0;strokeColor=#FF8000;strokeWidth=2;fillColor=none;fontSize=16;fontColor=#4277BB;" vertex="1" parent="6qygh8IlFuuTyOwgghLc-411">
          <mxGeometry x="828" y="212" width="192" height="91" as="geometry" />
        </mxCell>
        <mxCell id="6qygh8IlFuuTyOwgghLc-420" value="" style="rounded=0;whiteSpace=wrap;html=1;shadow=0;glass=0;sketch=0;fontSize=16;fontColor=#4277BB;fillColor=none;strokeWidth=2;strokeColor=#FF8000;" vertex="1" parent="6qygh8IlFuuTyOwgghLc-410">
          <mxGeometry x="262" y="620" width="318" height="117" as="geometry" />
        </mxCell>
        <mxCell id="6qygh8IlFuuTyOwgghLc-421" style="edgeStyle=orthogonalEdgeStyle;rounded=0;orthogonalLoop=1;jettySize=auto;html=1;exitX=0.362;exitY=1.008;exitDx=0;exitDy=0;strokeColor=#FF8000;strokeWidth=2;fontSize=16;fontColor=#4277BB;exitPerimeter=0;" edge="1" parent="6qygh8IlFuuTyOwgghLc-410" source="6qygh8IlFuuTyOwgghLc-419">
          <mxGeometry relative="1" as="geometry">
            <mxPoint x="612" y="430" as="targetPoint" />
            <Array as="points" />
          </mxGeometry>
        </mxCell>
        <mxCell id="6qygh8IlFuuTyOwgghLc-422" style="edgeStyle=orthogonalEdgeStyle;rounded=0;orthogonalLoop=1;jettySize=auto;html=1;exitX=1;exitY=0.5;exitDx=0;exitDy=0;strokeColor=#FF8000;strokeWidth=2;fontSize=16;fontColor=#4277BB;entryX=-0.013;entryY=0.416;entryDx=0;entryDy=0;entryPerimeter=0;" edge="1" parent="6qygh8IlFuuTyOwgghLc-410">
          <mxGeometry relative="1" as="geometry">
            <mxPoint x="390.1340800000005" y="469.9184926170849" as="targetPoint" />
            <mxPoint x="205" y="368" as="sourcePoint" />
            <Array as="points">
              <mxPoint x="205" y="368" />
              <mxPoint x="220" y="368" />
              <mxPoint x="220" y="430" />
              <mxPoint x="310" y="430" />
              <mxPoint x="310" y="470" />
            </Array>
          </mxGeometry>
        </mxCell>
        <mxCell id="6qygh8IlFuuTyOwgghLc-428" value="Developer Contribution" parent="0" visible="0" />
        <mxCell id="6qygh8IlFuuTyOwgghLc-429" style="edgeStyle=orthogonalEdgeStyle;rounded=0;orthogonalLoop=1;jettySize=auto;html=1;exitX=1;exitY=0.5;exitDx=0;exitDy=0;strokeColor=#FF8000;strokeWidth=2;fontSize=16;fontColor=#4277BB;entryX=-0.015;entryY=0.329;entryDx=0;entryDy=0;entryPerimeter=0;" edge="1" parent="6qygh8IlFuuTyOwgghLc-428">
          <mxGeometry relative="1" as="geometry">
            <mxPoint x="389.82240000000024" y="459.4788078630311" as="targetPoint" />
            <mxPoint x="205" y="300" as="sourcePoint" />
            <Array as="points">
              <mxPoint x="205" y="300" />
              <mxPoint x="230" y="300" />
              <mxPoint x="230" y="420" />
              <mxPoint x="320" y="420" />
              <mxPoint x="320" y="460" />
            </Array>
          </mxGeometry>
        </mxCell>
        <mxCell id="6qygh8IlFuuTyOwgghLc-432" style="edgeStyle=orthogonalEdgeStyle;rounded=0;orthogonalLoop=1;jettySize=auto;html=1;exitX=0.5;exitY=0;exitDx=0;exitDy=0;strokeColor=#FF8000;strokeWidth=2;fontSize=16;fontColor=#4277BB;" edge="1" parent="6qygh8IlFuuTyOwgghLc-428">
          <mxGeometry relative="1" as="geometry">
            <mxPoint x="296" y="360" as="targetPoint" />
            <mxPoint x="470.08000000000015" y="420" as="sourcePoint" />
            <Array as="points">
              <mxPoint x="470" y="410" />
              <mxPoint x="296" y="410" />
            </Array>
          </mxGeometry>
        </mxCell>
        <mxCell id="1" parent="0" />
        <mxCell id="6qygh8IlFuuTyOwgghLc-29" value="" style="rounded=0;whiteSpace=wrap;html=1;labelBackgroundColor=#FFFFFF;strokeWidth=2;fillColor=none;fontSize=14;fontColor=#4277BB;strokeColor=#4277bb;" vertex="1" parent="1">
          <mxGeometry x="816" y="244" width="254" height="490" as="geometry" />
        </mxCell>
        <mxCell id="NAwcZZ_wHCe8-uJfkV1U-92" value="" style="swimlane;shadow=0;strokeColor=#4277BB;fontColor=#4277BB;align=right;startSize=0;collapsible=0;strokeWidth=3;fillColor=#ECBF1B;fontSize=14;horizontal=1;" parent="1" vertex="1">
          <mxGeometry x="22" y="167" width="1138" height="594" as="geometry" />
        </mxCell>
        <mxCell id="NAwcZZ_wHCe8-uJfkV1U-272" value="" style="rounded=0;whiteSpace=wrap;html=1;labelBackgroundColor=#FFFFFF;fillColor=none;fontColor=#4277BB;strokeWidth=2;strokeColor=#4277bb;" parent="NAwcZZ_wHCe8-uJfkV1U-92" vertex="1">
          <mxGeometry x="231" y="443" width="449" height="137" as="geometry" />
        </mxCell>
        <mxCell id="NAwcZZ_wHCe8-uJfkV1U-277" value="" style="rounded=0;whiteSpace=wrap;html=1;labelBackgroundColor=#FFFFFF;strokeWidth=2;fillColor=none;fontSize=16;fontColor=#4277BB;strokeColor=#4277bb;" parent="NAwcZZ_wHCe8-uJfkV1U-92" vertex="1">
          <mxGeometry x="333" y="77.5" width="347" height="122.5" as="geometry" />
        </mxCell>
        <mxCell id="6qygh8IlFuuTyOwgghLc-1" value="" style="rounded=0;whiteSpace=wrap;html=1;labelBackgroundColor=#FFFFFF;strokeWidth=2;fillColor=none;fontSize=14;fontColor=#4277BB;glass=0;sketch=0;shadow=0;dashed=1;strokeColor=#4277bb;" vertex="1" parent="NAwcZZ_wHCe8-uJfkV1U-92">
          <mxGeometry x="780" y="58.65" width="345" height="520" as="geometry" />
        </mxCell>
        <mxCell id="NAwcZZ_wHCe8-uJfkV1U-278" value="" style="rounded=0;whiteSpace=wrap;html=1;labelBackgroundColor=#FFFFFF;strokeWidth=2;fillColor=none;fontSize=14;fontColor=#4277BB;strokeColor=#4277bb;" parent="NAwcZZ_wHCe8-uJfkV1U-92" vertex="1">
          <mxGeometry x="811" y="93" width="220" height="214" as="geometry" />
        </mxCell>
        <mxCell id="NAwcZZ_wHCe8-uJfkV1U-279" value="" style="rounded=0;whiteSpace=wrap;html=1;labelBackgroundColor=#FFFFFF;strokeWidth=2;fillColor=none;fontSize=14;fontColor=#4277BB;strokeColor=#4277bb;" parent="NAwcZZ_wHCe8-uJfkV1U-92" vertex="1">
          <mxGeometry x="811" y="333" width="220" height="107" as="geometry" />
        </mxCell>
        <mxCell id="NAwcZZ_wHCe8-uJfkV1U-155" value="&lt;font style=&quot;font-size: 14px&quot;&gt;GeoView&lt;/font&gt;" style="aspect=fixed;perimeter=ellipsePerimeter;html=1;align=center;shadow=0;dashed=0;image;image=img/lib/ibm/applications/visualization.svg;labelBackgroundColor=#ffffff;strokeColor=#666666;strokeWidth=2;fillColor=#C2952D;gradientColor=none;fontSize=12;fontColor=#4277BB;verticalAlign=top;horizontal=1;" parent="NAwcZZ_wHCe8-uJfkV1U-92" vertex="1">
          <mxGeometry x="388" y="463" width="60" height="60" as="geometry" />
        </mxCell>
        <mxCell id="NAwcZZ_wHCe8-uJfkV1U-164" value="" style="line;strokeWidth=3;direction=south;html=1;shadow=0;labelBackgroundColor=none;fillColor=none;gradientColor=none;fontSize=12;fontColor=#4277BB;align=right;strokeColor=#4277BB;" parent="NAwcZZ_wHCe8-uJfkV1U-92" vertex="1">
          <mxGeometry x="687" y="1" width="10" height="593" as="geometry" />
        </mxCell>
        <mxCell id="NAwcZZ_wHCe8-uJfkV1U-171" value="&lt;div&gt;PUBLIC ACCESS ZONE&lt;br&gt;&lt;/div&gt;" style="text;html=1;align=center;verticalAlign=top;fontColor=#4277BB;shadow=0;dashed=0;strokeColor=none;fillColor=none;labelBackgroundColor=none;fontStyle=1;fontSize=16;spacingLeft=5;" parent="NAwcZZ_wHCe8-uJfkV1U-92" vertex="1">
          <mxGeometry x="301.88" y="5" width="332.25" height="49" as="geometry" />
        </mxCell>
        <mxCell id="NAwcZZ_wHCe8-uJfkV1U-172" value="GEO-COMMUNITY CLOUD (GCC)" style="text;html=1;align=left;verticalAlign=top;fontColor=#4277BB;shadow=0;dashed=0;strokeColor=none;fillColor=none;labelBackgroundColor=none;fontStyle=1;fontSize=16;spacingLeft=5;" parent="NAwcZZ_wHCe8-uJfkV1U-92" vertex="1">
          <mxGeometry x="798" y="5" width="217" height="20" as="geometry" />
        </mxCell>
        <mxCell id="NAwcZZ_wHCe8-uJfkV1U-186" value="" style="line;strokeWidth=3;direction=south;html=1;shadow=0;labelBackgroundColor=none;fillColor=none;gradientColor=none;fontSize=12;fontColor=#4277BB;align=right;strokeColor=#4277BB;" parent="NAwcZZ_wHCe8-uJfkV1U-92" vertex="1">
          <mxGeometry x="216" y="-1.25" width="10" height="241.25" as="geometry" />
        </mxCell>
        <mxCell id="NAwcZZ_wHCe8-uJfkV1U-187" value="USE CASES" style="text;html=1;align=left;verticalAlign=top;fontColor=#4277BB;shadow=0;dashed=0;strokeColor=none;fillColor=none;labelBackgroundColor=none;fontStyle=1;fontSize=16;spacingLeft=5;" parent="NAwcZZ_wHCe8-uJfkV1U-92" vertex="1">
          <mxGeometry x="50" y="6" width="130" height="30" as="geometry" />
        </mxCell>
        <mxCell id="NAwcZZ_wHCe8-uJfkV1U-188" value="" style="line;strokeWidth=3;direction=south;html=1;shadow=0;labelBackgroundColor=none;fillColor=none;gradientColor=none;fontSize=12;fontColor=#4277BB;align=right;strokeColor=#4277BB;" parent="NAwcZZ_wHCe8-uJfkV1U-92" vertex="1">
          <mxGeometry x="216" y="370" width="10" height="224" as="geometry" />
        </mxCell>
        <mxCell id="NAwcZZ_wHCe8-uJfkV1U-3" value="&lt;div style=&quot;font-size: 14px&quot;&gt;&lt;font style=&quot;font-size: 14px&quot; color=&quot;#4277BB&quot;&gt;&lt;font style=&quot;font-size: 14px&quot;&gt;Microservices&lt;/font&gt;&lt;br&gt;&lt;/font&gt;&lt;/div&gt;" style="outlineConnect=0;dashed=0;verticalLabelPosition=bottom;verticalAlign=top;align=center;html=1;shape=mxgraph.aws3.lambda_function;gradientColor=none;fillColor=#00b09e;spacingTop=0;" parent="NAwcZZ_wHCe8-uJfkV1U-92" vertex="1">
          <mxGeometry x="843.75" y="350.5" width="60" height="60" as="geometry" />
        </mxCell>
        <mxCell id="NAwcZZ_wHCe8-uJfkV1U-222" value="&lt;font style=&quot;font-size: 14px&quot;&gt;Metadata&lt;/font&gt;" style="aspect=fixed;perimeter=ellipsePerimeter;html=1;align=center;shadow=0;dashed=0;image;image=img/lib/ibm/data/enterprise_data.svg;labelBackgroundColor=#ffffff;strokeColor=#666666;strokeWidth=2;fillColor=#C2952D;gradientColor=none;fontSize=12;fontColor=#4277BB;" parent="NAwcZZ_wHCe8-uJfkV1U-92" vertex="1">
          <mxGeometry x="945" y="217" width="60" height="60" as="geometry" />
        </mxCell>
        <mxCell id="NAwcZZ_wHCe8-uJfkV1U-223" value="&lt;div&gt;&lt;font style=&quot;font-size: 14px&quot;&gt;ESRI ArcGIS Online /&lt;br&gt;&lt;/font&gt;&lt;/div&gt;&lt;div&gt;&lt;font style=&quot;font-size: 14px&quot;&gt;MapServer&lt;br&gt;&lt;/font&gt;&lt;/div&gt;" style="aspect=fixed;perimeter=ellipsePerimeter;html=1;align=center;shadow=0;dashed=0;image;image=img/lib/ibm/applications/enterprise_applications.svg;labelBackgroundColor=#ffffff;strokeColor=#666666;strokeWidth=2;fillColor=#C2952D;gradientColor=none;fontSize=12;fontColor=#4277BB;" parent="NAwcZZ_wHCe8-uJfkV1U-92" vertex="1">
          <mxGeometry x="891" y="465" width="60" height="60" as="geometry" />
        </mxCell>
        <mxCell id="NAwcZZ_wHCe8-uJfkV1U-225" value="&lt;font style=&quot;font-size: 14px&quot;&gt;Data Lakes&lt;/font&gt;" style="aspect=fixed;perimeter=ellipsePerimeter;html=1;align=center;shadow=0;dashed=0;image;image=img/lib/ibm/data/device_registry.svg;labelBackgroundColor=#ffffff;strokeColor=#666666;strokeWidth=2;fillColor=#C2952D;gradientColor=none;fontSize=12;fontColor=#4277BB;" parent="NAwcZZ_wHCe8-uJfkV1U-92" vertex="1">
          <mxGeometry x="843.75" y="217" width="60" height="60" as="geometry" />
        </mxCell>
        <mxCell id="NAwcZZ_wHCe8-uJfkV1U-227" value="&lt;font style=&quot;font-size: 14px&quot;&gt;Storage&lt;/font&gt;" style="aspect=fixed;perimeter=ellipsePerimeter;html=1;align=center;shadow=0;dashed=0;image;image=img/lib/ibm/data/data_services.svg;labelBackgroundColor=#ffffff;strokeColor=#666666;strokeWidth=2;fillColor=#C2952D;gradientColor=none;fontSize=12;fontColor=#4277BB;spacingTop=0;" parent="NAwcZZ_wHCe8-uJfkV1U-92" vertex="1">
          <mxGeometry x="945" y="109" width="60" height="60" as="geometry" />
        </mxCell>
        <mxCell id="NAwcZZ_wHCe8-uJfkV1U-233" value="&lt;div&gt;&lt;font style=&quot;font-size: 14px&quot;&gt;Identity&lt;/font&gt;&lt;/div&gt;&lt;div&gt;&lt;font style=&quot;font-size: 14px&quot;&gt;Service&lt;/font&gt;&lt;/div&gt;" style="aspect=fixed;perimeter=ellipsePerimeter;html=1;align=center;shadow=0;dashed=0;image;image=img/lib/ibm/data/device_identity_service.svg;labelBackgroundColor=#ffffff;strokeColor=#666666;strokeWidth=2;fillColor=#C2952D;gradientColor=none;fontSize=12;fontColor=#4277BB;" parent="NAwcZZ_wHCe8-uJfkV1U-92" vertex="1">
          <mxGeometry x="845" y="108" width="60" height="60" as="geometry" />
        </mxCell>
        <mxCell id="NAwcZZ_wHCe8-uJfkV1U-236" value="&lt;div&gt;&lt;span style=&quot;&quot;&gt;&lt;font&gt;&lt;font style=&quot;font-size: 14px&quot;&gt;Source code /&lt;/font&gt;&lt;/font&gt;&lt;/span&gt;&lt;/div&gt;&lt;div&gt;&lt;span style=&quot;&quot;&gt;&lt;font&gt;&lt;font style=&quot;font-size: 14px&quot;&gt;Documentation&lt;/font&gt;&lt;/font&gt;&lt;/span&gt;&lt;/div&gt;" style="verticalLabelPosition=bottom;html=1;verticalAlign=top;align=center;strokeColor=none;shape=mxgraph.azure.github_code;pointerEvents=1;labelBackgroundColor=#FFFFFF;fillColor=#ECBF1B;fontColor=#4277BB;spacing=2;" parent="NAwcZZ_wHCe8-uJfkV1U-92" vertex="1">
          <mxGeometry x="243.88" y="93" width="60" height="60" as="geometry" />
        </mxCell>
        <mxCell id="NAwcZZ_wHCe8-uJfkV1U-174" value="&lt;span style=&quot;font-size: 14px&quot;&gt;Network&lt;br&gt;&lt;/span&gt;&lt;font style=&quot;font-size: 14px&quot;&gt;Security&lt;/font&gt;" style="aspect=fixed;perimeter=ellipsePerimeter;html=1;align=left;shadow=0;dashed=0;image;image=img/lib/ibm/blockchain/certificate_authority.svg;labelBackgroundColor=#ffffff;strokeColor=#666666;strokeWidth=3;fillColor=#C2952D;gradientColor=none;fontSize=12;fontColor=#4277BB;labelPosition=right;verticalLabelPosition=middle;verticalAlign=middle;" parent="NAwcZZ_wHCe8-uJfkV1U-92" vertex="1">
          <mxGeometry x="662" y="8" width="60" height="60" as="geometry" />
        </mxCell>
        <mxCell id="NAwcZZ_wHCe8-uJfkV1U-251" value="&lt;font style=&quot;font-size: 14px&quot;&gt;GeoCore&lt;/font&gt;" style="aspect=fixed;perimeter=ellipsePerimeter;html=1;align=center;shadow=0;dashed=0;image;image=img/lib/ibm/applications/application_logic.svg;labelBackgroundColor=#ffffff;strokeColor=#666666;strokeWidth=2;fillColor=#C2952D;gradientColor=none;fontSize=12;fontColor=#4277BB;spacingTop=0;verticalAlign=top;horizontal=1;" parent="NAwcZZ_wHCe8-uJfkV1U-92" vertex="1">
          <mxGeometry x="490" y="463" width="60" height="60" as="geometry" />
        </mxCell>
        <mxCell id="NAwcZZ_wHCe8-uJfkV1U-255" value="&lt;font style=&quot;font-size: 14px&quot;&gt;Geosys&lt;/font&gt;" style="aspect=fixed;perimeter=ellipsePerimeter;html=1;align=center;shadow=0;dashed=0;image;image=img/lib/ibm/applications/application_logic.svg;labelBackgroundColor=#ffffff;strokeColor=#666666;strokeWidth=2;fillColor=#C2952D;gradientColor=none;fontSize=12;fontColor=#4277BB;spacingTop=0;" parent="NAwcZZ_wHCe8-uJfkV1U-92" vertex="1">
          <mxGeometry x="471.15999999999974" y="92.5" width="60" height="60" as="geometry" />
        </mxCell>
        <mxCell id="NAwcZZ_wHCe8-uJfkV1U-257" value="&lt;font style=&quot;font-size: 14px&quot;&gt;Data Dissemination &lt;br&gt;Repository (DDR)&lt;/font&gt;" style="aspect=fixed;perimeter=ellipsePerimeter;html=1;align=center;shadow=0;dashed=0;fontColor=#4277BB;labelBackgroundColor=#ffffff;fontSize=12;spacingTop=0;image;image=img/lib/ibm/applications/api_developer_portal.svg;fillColor=#ECBF1B;" parent="NAwcZZ_wHCe8-uJfkV1U-92" vertex="1">
          <mxGeometry x="579.16" y="92.5" width="60" height="60" as="geometry" />
        </mxCell>
        <mxCell id="NAwcZZ_wHCe8-uJfkV1U-260" value="&lt;font style=&quot;font-size: 14px&quot;&gt;Datacube&lt;/font&gt;" style="aspect=fixed;perimeter=ellipsePerimeter;html=1;align=center;shadow=0;dashed=0;fontColor=#4277BB;labelBackgroundColor=#ffffff;fontSize=12;spacingTop=0;image;image=img/lib/ibm/applications/app_server.svg;fillColor=#ECBF1B;" parent="NAwcZZ_wHCe8-uJfkV1U-92" vertex="1">
          <mxGeometry x="372.15999999999997" y="92.5" width="60" height="60" as="geometry" />
        </mxCell>
        <mxCell id="NAwcZZ_wHCe8-uJfkV1U-262" value="&lt;font style=&quot;font-size: 14px&quot;&gt;HNAP Validator&lt;/font&gt;" style="aspect=fixed;perimeter=ellipsePerimeter;html=1;align=center;shadow=0;dashed=0;fontColor=#4277BB;labelBackgroundColor=#ffffff;fontSize=12;spacingTop=0;image;image=img/lib/ibm/applications/annotate.svg;fillColor=#ECBF1B;" parent="NAwcZZ_wHCe8-uJfkV1U-92" vertex="1">
          <mxGeometry x="587" y="463" width="60" height="60" as="geometry" />
        </mxCell>
        <mxCell id="NAwcZZ_wHCe8-uJfkV1U-263" value="&lt;font style=&quot;font-size: 14px&quot;&gt;Virtual Machines&lt;/font&gt;" style="aspect=fixed;perimeter=ellipsePerimeter;html=1;align=center;shadow=0;dashed=0;fontColor=#4277BB;labelBackgroundColor=#ffffff;fontSize=12;spacingTop=0;image;image=img/lib/ibm/management/provider_cloud_portal_service.svg;fillColor=#ECBF1B;" parent="NAwcZZ_wHCe8-uJfkV1U-92" vertex="1">
          <mxGeometry x="945" y="350.5" width="60" height="60" as="geometry" />
        </mxCell>
        <mxCell id="NAwcZZ_wHCe8-uJfkV1U-264" value="&lt;font style=&quot;font-size: 14px&quot;&gt;OGC APIs&lt;br&gt;OGC Web Services &lt;br&gt;&lt;/font&gt;" style="aspect=fixed;perimeter=ellipsePerimeter;html=1;align=center;shadow=0;dashed=0;fontColor=#4277BB;labelBackgroundColor=#ffffff;fontSize=12;spacingTop=0;image;image=img/lib/ibm/applications/index.svg;fillColor=#ECBF1B;" parent="NAwcZZ_wHCe8-uJfkV1U-92" vertex="1">
          <mxGeometry x="282" y="463" width="60" height="60" as="geometry" />
        </mxCell>
        <mxCell id="NAwcZZ_wHCe8-uJfkV1U-273" value="Virtual Private Cloud (VPC)" style="text;html=1;strokeColor=none;fillColor=none;align=center;verticalAlign=middle;whiteSpace=wrap;rounded=0;labelBackgroundColor=#FFFFFF;fontColor=#4277BB;fontSize=16;" parent="NAwcZZ_wHCe8-uJfkV1U-92" vertex="1">
          <mxGeometry x="785" y="49" width="228" height="20" as="geometry" />
        </mxCell>
        <mxCell id="NAwcZZ_wHCe8-uJfkV1U-276" value="Data Processing Services" style="text;html=1;strokeColor=none;fillColor=none;align=center;verticalAlign=middle;whiteSpace=wrap;rounded=0;labelBackgroundColor=#FFFFFF;fontSize=16;fontColor=#4277BB;" parent="NAwcZZ_wHCe8-uJfkV1U-92" vertex="1">
          <mxGeometry x="333" y="65.5" width="210" height="20" as="geometry" />
        </mxCell>
        <mxCell id="NAwcZZ_wHCe8-uJfkV1U-281" value="" style="group" parent="NAwcZZ_wHCe8-uJfkV1U-92" vertex="1" connectable="0">
          <mxGeometry x="10" y="434" width="190" height="180" as="geometry" />
        </mxCell>
        <mxCell id="NAwcZZ_wHCe8-uJfkV1U-131" value="Application component" style="rounded=0;html=1;shadow=0;labelBackgroundColor=none;strokeColor=none;strokeWidth=2;fillColor=#EBC01A;gradientColor=none;fontSize=12;fontColor=#4277BB;align=left;labelPosition=right;verticalLabelPosition=middle;verticalAlign=middle;spacingLeft=5;" parent="NAwcZZ_wHCe8-uJfkV1U-281" vertex="1">
          <mxGeometry x="18.00333333333333" y="75" width="25.333333333333332" height="10" as="geometry" />
        </mxCell>
        <mxCell id="NAwcZZ_wHCe8-uJfkV1U-133" value="Cloud systems" style="rounded=0;html=1;shadow=0;labelBackgroundColor=none;strokeColor=none;strokeWidth=2;fillColor=#0DB39D;gradientColor=none;fontSize=12;fontColor=#4277BB;align=left;labelPosition=right;verticalLabelPosition=middle;verticalAlign=middle;spacingLeft=5;" parent="NAwcZZ_wHCe8-uJfkV1U-281" vertex="1">
          <mxGeometry x="18.00333333333333" y="93" width="25.333333333333332" height="10" as="geometry" />
        </mxCell>
        <mxCell id="NAwcZZ_wHCe8-uJfkV1U-134" value="Data store" style="rounded=0;html=1;shadow=0;labelBackgroundColor=none;strokeColor=none;strokeWidth=2;fillColor=#335D81;gradientColor=none;fontSize=12;fontColor=#4277BB;align=left;labelPosition=right;verticalLabelPosition=middle;verticalAlign=middle;spacingLeft=5;" parent="NAwcZZ_wHCe8-uJfkV1U-281" vertex="1">
          <mxGeometry x="18.00333333333333" y="112" width="25.333333333333332" height="10" as="geometry" />
        </mxCell>
        <mxCell id="NAwcZZ_wHCe8-uJfkV1U-137" value="Security" style="rounded=0;html=1;shadow=0;labelBackgroundColor=none;strokeColor=none;strokeWidth=2;fillColor=#E52134;gradientColor=none;fontSize=12;fontColor=#4277BB;align=left;labelPosition=right;verticalLabelPosition=middle;verticalAlign=middle;spacingLeft=5;" parent="NAwcZZ_wHCe8-uJfkV1U-281" vertex="1">
          <mxGeometry x="18.00333333333333" y="131" width="25.333333333333332" height="10" as="geometry" />
        </mxCell>
        <mxCell id="NAwcZZ_wHCe8-uJfkV1U-138" value="LEGEND" style="text;html=1;align=left;verticalAlign=middle;fontColor=#4277BB;shadow=0;dashed=0;strokeColor=none;fillColor=none;labelBackgroundColor=none;fontStyle=1;fontSize=14;spacingLeft=0;" parent="NAwcZZ_wHCe8-uJfkV1U-281" vertex="1">
          <mxGeometry x="18.00333333333333" y="49" width="124.13333333333333" height="20" as="geometry" />
        </mxCell>
        <mxCell id="NAwcZZ_wHCe8-uJfkV1U-283" value="&lt;font style=&quot;font-size: 14px&quot;&gt;API Gateway&lt;/font&gt;" style="aspect=fixed;perimeter=ellipsePerimeter;html=1;align=center;shadow=0;dashed=0;labelBackgroundColor=#ffffff;fontSize=12;spacingTop=0;image;image=img/lib/ibm/security/gateway.svg;strokeColor=#203959;strokeWidth=2;fillColor=none;fontColor=#4277BB;" parent="NAwcZZ_wHCe8-uJfkV1U-92" vertex="1">
          <mxGeometry x="662" y="283.62" width="60" height="60" as="geometry" />
        </mxCell>
        <mxCell id="NAwcZZ_wHCe8-uJfkV1U-219" value="&lt;b&gt;&lt;font style=&quot;font-size: 18px&quot;&gt;Geo.ca&lt;/font&gt;&lt;/b&gt;" style="aspect=fixed;perimeter=ellipsePerimeter;html=1;align=center;shadow=0;dashed=0;image;image=img/lib/ibm/miscellaneous/ibm_public_cloud.svg;labelBackgroundColor=#ffffff;strokeColor=#666666;strokeWidth=2;fillColor=#C2952D;gradientColor=none;fontSize=12;fontColor=#4277BB;" parent="NAwcZZ_wHCe8-uJfkV1U-92" vertex="1">
          <mxGeometry x="370.16" y="253" width="155.84000000000003" height="119.99637648337713" as="geometry" />
        </mxCell>
        <mxCell id="NAwcZZ_wHCe8-uJfkV1U-179" value="" style="shape=image;verticalLabelPosition=bottom;verticalAlign=top;imageAspect=0;aspect=fixed;image=data:image/png,iVBORw0KGgoAAAANSUhEUgAAAMgAAADICAYAAACtWK6eAAA5bUlEQVR4nOydB3yT1frHz5vV7NG0adK96W4po5QwZAlFVIYCZYpXQa8g/O8V9ArXiXqlehUBBcQBV1kqQ6RlqSgtZdMNdDddadPsPd//J4HWAh3ZSdv3+/lEa/Oecx4hv5zznPOc50EBBASEXkEEgoDQB4hAEBD6AONpA4YCvsyxieZ/Y7A0EpWaNOr+97hjAQDY3toa9FKBTFZW0f13MlnZVYNeqtTrZUq5rKzehaYPeSBPGzBYoFCTwgnEEJZZAARiSCCBEBrD9ONy7334aQAAnAuGVQIAVHqziKRl5XJZ2VW9XioRCQsuKhU1LVptm9gFYw4pEIHYAQZDJVJpSRHmb38qNSmN6T9hKgZDDgIAkDxtWzfEKhXvllxaViSTlRWZRSMSXiz3tFEDDUQgVsJiZ402zw4B7KxpVFqyeVnk72mbbEQHAOgQdhScFwktL0QwVoAIpBcIhBB/XyY3LYCdNTuAM3M2AMDPRcskT6HT66XVoo6C8238vGMiYUGRWt0o8LRR3gYikG50iiI8cuVLVFryRAAA3dM2uRFBW2vuD0Jhwfl2ft55RCx3GfICIZKiOIFBcx/3ZXKnMv24UwEADE/b5AWIhR0F50TCgnNNjQeOaNRNHZ42yFMMWYGYfYrwiFWrmX7cuV7mXHsb4rbW3ANNTQf3tvPzrnjaGHczpASCwVCJAeyZ3Ohh6zcSiaGZg8yncDU6lYpXWH0n5702fm6BwSBTedogdzAkBGIWRnjkqvnhkavWY7G0BE/bM9DR66UV9bW7cuprdx0e7EIZ1AJBhOFyWpoaD3x5q2zTlsEqlEEpEEQY7mUwzyiDTiBBwQunxSdtzsFiaametsWJWEJKzJ9FYUdBgfkX98JKuj6MnfFZtnZ8LxasyxfDYmlEyr14MSotKRGLpXUeiPZ7MGoWStWdLRsb6nYfs9UOb2XQCMSXOTYxOW3bjgHufAs0Gj5PKr5xWSYrq1CrGivVal6Lp4MSO0NrwN2YswQslsbqI97M4syXFq15aTCc1A94gRAIIf7xiZs3BHBmvjjAtmsler20RdRRcF4oLDgvl5VVyKRldQN1iWL+guqMVqZSkxLMP98q3/iWXFY+oKONB7RAwiJWzo4ZtmELFkuL8bQtViBRqXgVIqEltOO4XFpWh5xWez8D8j4IkRTFSUr5+AOmHzfby5dTLcKOgvPNjQe/RWKdBiYDTiDmqTw1fddePJ49wtO29EJLW2vusTZ+3rGhdKA2WBlQAolL3LwuInLVm14YRKiWSUvP1Nfu3oGIYnAxIARCoSaGp6Rt+5RKS87ysiWVRNhRcLy6ckvOYNixQXgYrxdIUPCCafFJ7+3wMkfccoJcfSdnB+JXDG68WiDetqTS66UVbfzcHwZzaAXC/XilQDAYKjF91L6tTD/uMi9ZUgmaGg98jghj6OF1AunmbzzpaVsAAEphR8GB0qI1ryNLqaGJVwmEEzj3kaTUj7/CYMiRHjZF3s4/faCqcsuHMmlJrYdtGZIwg1mMoGVJ7/sQCNir/z75nKfs8JqT9OTUzzYGh2a/4ekllUrF+2OwxBENVKIy4xNxC4IPSFCKZACAEX9UNrHu9/ICT9jiFalHvUQckrraXf9X8MekmYg4PMfw7HGPQ0sD/7wnDjNoclbwm56yB+2pgTvxBnHo9dLiousrlzTU7f7BZNLqPWXHUIZIIWKHPTtmnWgE2K016cjd31NhtOH+GtpvknoBz912eXSJlT5yb04AZ+bLHhSHXiYtPX754uzlyO6U52CwmZTQv4/8op0uW9zbMxyd78kbr5yc5V7LPDiDmGeOwOC5GzwoDl0b//TOK4VPPovMGp4jMjM+kfFC3EkhQT6tr+eUaE1ksMEvr6OW3+I+6zzkg3jBskrXxDvwzo2rS9Z6aHwEAMCIZyctAUvZF8QoeUp/z8IAxqhjsM+4x7K/cPs2rxeIQ1JRtnHFYLoWOtBgcPzI8S+P+7iO2PY3YLBuFYOBMGpQITnkeuseGNedg0XHrn/W0+Ioubl6fnPTobMeGn/IEzU2PpGUHbG3Dm6z6bpCUCPlnUvnL1xwnWU94zYnnUJNDB838fwND6b2RMThYVKeGb9CMQrzX7VRY1NsHUdK33d7yx/PqeQqt/uKbplBzOLIGHv8JCKOoQmRQsTGr52wpYUlXQOMBps2hliQ77W6HZde8oQ4gDsEgsFQiSlp2z71YH4qRBweJCglIoKzKvV/zcY2rq1tGT60luYPrz0h5gsVrrGuf1wukPRR+7Z6MPAQEYeHMM8aUfPSl6pG43KaDW2+trbHobEy/aGWeR21ba2usdA6XCqQuIR3190LWfcESkQcnsE/ksMO+fuIr1pxwpnAoLa5PQQgg9919EvXfyu55BIDbcBlAmEFZHEjol5400M7Vrom3oEPEHG4l85ZQ5OB/6BVL2TZ209wI/XNK1+f+s651tmHS3axCIQQf+7E3897yu+QSUt/LPhz8tOeGHuoEpwSEeG3NP7zNh/xDEf6CVP47yn54NzfPeWUP4hLQk0yxh7bSySGTnRF3/2hUvH+KMzPehoJH3EP5lkj4W/cdabHfL+XoOTJjvQVqGOeLNv86zK1neIYP/HFjKDgGFJTY5nQETu64/QlltnvoNKSn3B2v1YiuHF12TNI4KF7iJ2SmoF/MnB7O5CMBAbH+uKg/K+07Lz5jL3iyORmD2Nx3v7Jx0dWWVqcO02hkBods+guTp1BOIFzHolPfHu3+YvFmf1aibzo+sq5wo4/izww9pAickLiSM7ypE/l6egcJVAHO9ofVeZztvnT63MF9Xy7vvknTnqJGxD4nzyVEuJo1PiI2Ph0FK/+5Hm9Xueoac4TiNnvGJHx/TE0Gs9xVp82oKur2bmxvvbzgx4Ye8gQmhoVGrk6Y4c0HfpETTQkwwB2ONiVKsQdbci5MlfRIbPrrGN4enYqO+jDnzVqiN35O6MhdEJkJPFGVeVvdxy1z2lO+ujMY18y/bgeuTssk5YeL/hz8mxPjD0UYLCZlIjF6eskkYZX1EYN1Vn9BkDMa/ytRTP51U12JcRIH5mdEhr+2WmtFrAffI9ChWsu5U8ewWsokzpio1PC3cMiVs724HmHoKRozToPjT3oiX18+GPM9SnXWsMU7zhTHH6AcaP105uP2SuOkaOzk8Iit57qSRzAUmAIihrD3faeo3Y6vMTCYKjEEaP3HUSj8T0a6mqq7mxZzW85dt4TYw9mOMlhUYmvPfKNIEb7ph5t6Le6lC2YxdG+tTirraa53Z723AnZ0WERW0+rlFCf/o9O558WFiY/Vld7za5xgDN2seITN2/w1HmHSsX7o75212FPjD1YCUmNDKNmhb0uDdIv48HteGf376g40oZPDwkJ3XpOKoVC+x3LD6o+m5dbaZeh93BIIL7MsYnBodmeupWnq76z5T1kS9c5hKZGh/rPiv6nkKN+VmTSkAHs/DEcFUdkVDIpMWXnYZEICrPm+Zamj1bz+TyHtrIcEkh07Ib1nsqbK+woOICEkjhOaGpUqP/jMf8UcjQrWoxSCjC5Zhw6oNx2VBzjJx090t5GHmPN8zQ678DJYzsdXnrbLZCg4AXT7lV48gTiW+Ub3/LQ2IOCwOTwSOZjUevlwcYlLSYpGTjlWK1nyFhyh/KbuqftFUdYWDJ17ESzOGhTrHkei4XFlRVv/Esulzo8D9otkOhhGzZ66upsG//0DwO9OKSniJ2SmkF8hP1yB105twNW4V01Y3RCw1H58I9tT/KuVJXZ0z4kNJk+euzRX4QCmvX3SeBTb924frLBnvEexC6BhD2RtkIWkZ+BaZkCcJoAZ9hhC7rGhn1fu3vQgQyRQsTS0gIn+j8etV6Al0+RAxnaFT7Gg5CN+Ir2D4seFdW1NdvTPjgkmTE689gvCgV1rLVt8ATJ9Yt/btppz3g9YbNA6Oy0JPBIwGd8zEE8P+ogoApGAlb9PECWJDrLpj5RqXiFgvYzl90y2ACHHR3sz5oWtUwTi1khR6sSBUDmtrGZgH6zdduNWaK6NrvyWKUOnxkZHbvtO5WKmml9K1inVu5Z2+agY94dmwVCmRKwWoeRdaWGlPlfs7zIoiTg2zIV+LZOdpZtPWHZuXLlAIOB4JTIcMrk4DWaGNTzAqOWAoDTPi/WjY8JyG/877W5wto2uw4BM7nZw0LCt56Vy6AQm8YNbt775RcfOjXJtU2hJtQABo31VnqVUq/q9eAIp2YBf94TlpnFRx3oFCM70eulFedORbtnqhpg+HL8yMQU/+l+U8OfE/jIJpmAyccTdrAk1O8qt1x4Vq2wO2Q9ncV5+2eVEgqypR2ZDNdeKZwyvKG+1KnTpE0zSNzKzH836sV9nqrqCO2gedge0By7xzKb+DZPBWRJksOGmqmv3ZXjlI4GCWbfgjUifAx5DHuxNgw1T6FX+rUBiUdsgQBkiNeF7ijM+Xm9veJYtmJHllQ2/7BKCci2tlUqvvw/Z4sD2DKDhKZGhaJWBpdrjTqbjcepAwC7ZiGgtY8FaCPBZiPBvdnj/Ln0UUP9YNAsCkZ8YCIuiTYPnUR9SonRxHnaJhwKqw64TfjHle2n7XKOKRQaNGX65vk6/YK9sAmyeeZj+PK+P3Fk8lJrt3UJxGB/nU4sNxqUmv6etXoGYc6KWs83ym0WB7DMKm2Al7QVAPgzQBYnAnobF5BFaQCvsn4WbWvNPTZUxYEnE3HskeEZuGT6XDiC8KgCo0q4+zfb79+vy6FgyQJMrjj7yok/f7WrPYWGWrTs+CYeL/Fte9qTSKD55tW1a60VBxZHJYzhHjvUULdnd231zn6vR1glEHZMMFvE0T7j8J45BAOFb5nlZYYgj7A49zTBGECQRwK0gdRbS2Vz08H9Do4+oGBFBQVQ0wKmQZHEaSCS8KhCr2BrLXuz3vMdwQS0m6LPbz/VUlpvV5k6NjsUN37S3i08XqLd4UpKxe6XblXkW33RKm3Ep2/g8WGT/AOmC5wmENxI5mKdyfalVX+oKXWWlyDsBDD/3VM7RgEfZRAgi5MsyzKC8m7IjVRSdHYwV33yIeIx5DDfWEqcX6aJjR1Jimc+IgXKSCUw4QAwAqD3WN60HsFAaI1vPe6T2m8L35MLpUp7+oiLnx6dPnrnd2IROcNeO6i04v+eOPLBz9Y+Hxax5DE/v1kWMfr6cmfQGcnhEnFpnwfO/fog5jVv6GZuqRRSDLPWEGeBU7MAQRYDUKD5oqr29k/KSlG+vllxS8IXyt1tizNhRrADMUHEJOaI4GkwGzdKQzWkaIxaT6VltQmCHleNOileWu1Azqr52dvmanUL9+h09qeipdGlf54/N3kqv5Vn1YaAH2tM3KgxP18EMNQ1ZkvL9+8WX1/3Rl/t+hVI4KjIdHhpwHUr7XY5EEBpyBqfUpwYLpJUtF+R3Gq7TjL6tLTVNLd52rYHYbCZFEDHhhFCqfH0ePYoAxWKQwXhR0p1Mj/zctjT9tkKTehzRPxd1Yv2xlSZnfFFy37+N48XvxEAyO4wJSwWiOtrlo8qKc6tsep5HJUw6dFr+WiIkd799waDpPxsXkyfW6z9LrF8Rvut8Lwr+BcwMOHlePUowAGjAIf6PGUK1fxLfSwuUQSJDZWQxFAnaxDe8tFjWltKGioYeJpY0yFvl/BFLjlGDkmJDJdqFTRqODNagzEEBaaGJMghbRgl3DdeoBYGAADjzZ6DGNz7otO599DOGWBQGA27nvRu+a4/c+zNVxUYFE2YNPXwlzxeSK9l1qyFTMp7xVpxmElIfmftg+IAlst+9JiQ8KenNNb/0OsGQ58zCIFMxIV9NK5WqpPbdGjjfUAaLITVMYm0DoNSJxVUt/EwKIyBTiBLsCiMQdgqEIpaOzoFBEMwdPcfAICY9HizI4QSqWUMnVHvgyXhiP5R7EilXkOU6xRUEzDivaEYqqvAG3A80h+a5WXHL9sdOh4RlUwaPWb/DzIZO8tRe8gU/ulTJ8ZlWbtrFRnz3OPD4t7/sbcZq739l+3XL69Y01v7PgUSMnHYRMM8X+Q66xCFBfleEewuX9xSWl9tbx/JqVnRsXHb9qlUNBtiqnoGgmBtS9OLw4tu/HTLmudpjITQ0WOOn8Vg6LG9PaPXS8rPnep9mdVn0gZsEn2eNYYgDC7QEFrjX0d4t+r138c5Io6Fi7c/GRW795IzxGHGl3Hp39aKw+x3jBi995u+xGF5DkuPCQl7utd7Jr0KhEAhYrHJtLnWGIMwePCFqaWEY7JJJZ/89oa9/gaJTEMvf+7396SyBYe1GojpDLvYbOkvx48s/dja5xNT3lnrgwu3JnIWx/AdN6m3N3sVCGdk5GjZgPc9EKzFMmvU4t9t+c/1sVW/2r+FGzOMGzB73vXc9rak1511oY5MhRsvX3xmuVwuteqoOiRs/hQOZ9Ema/sPYM/stX5Nr7tYhFTmE2o3h0kjeIYAiHm543+3Xyy5Un3TkX5mPfne4z7453eKRJDTwrjNfodC8t/sivJ8kTXP0+gJoclp276HTVCvYRkPgsHQI6i0hDCZtOKhW4i9ziBQBKHPwu4IAx8ihiCiXDG+VPn6b+ObHBBHZFQyafEz5z8xmlb+qFI5TxxmAgIKX807+R+r7niY/Y7ktG1bYRPK1muupODQhT3OIj3OIP6RgQFCSIbcuxi8GDlS+gHBj3c2NRbXOnR3e8qjLyTRfV/5WiSkjXKeeXdhMhv/9+PBZZ9Z+3xq+ta3KJQUu1LQkinJXADAQ2P1KBBsNGU8DGBP1TJHcCH+gHHDcFaw/saJvN8c6YdMpqEenbntBZ1+Ro5KCTk9mz+RKC28eGH5i9aed8Qm/HOpv/8su1PQMplje0wK0aNAGOmB00VeEEqN4DzoOFoLulD+ZvWR83sdrd6UNnxmRPLwbTs6BFSHD/56gkCEW6oqX15SW1NqVSBkSMTTk6OiX90KYEc2BSCS2X+RSip43X/bo0BgNm6UN9w1QHAcIoYgRt1Ufsw/cfUzsYNBnhQKDTXziW1/U6tnbOkQQK5JGAjBWhT81fKSm7lWhdCbP9Rx8e9/3j0I0R7E4vyjD4oD9CSQgKgglhglj3dkMATPg4EwGmYr/ivRydocXnGNwzmizLNGyvDPtgsEtJnOsbBnaNTTqw9+969z1jzb6ZRj0HRHI8119XW7dvT0xkMCwQaTE4yI/zGQMbK1jDPCw1WvFl2tKnW0MwKBjJoxa8eLRmPWZoGrZo17MHzLck4cWf2Vtc+PzPj2E3ud8u7I5SUn+c2ne4xYf3iJxfZx+m4EguuBAGRg6xhn5HmN7978tdAp9cXj4sf5pY38Yo9Uwu71IM1ZBAbJjh/6bvZrCoV1TnnayE9fpdPHr3DC0LqG+p09zh6gJ4Ggg/AjXZimFcHJEI34Wv1N8V7oturIjSsX7Urv+SDh4Wn0EWPeesVgGPuSVOLaWcMMzqfmcN6JJc8oFNadlCekvPkCh7PoXWfcqZHJb/zSV7j7QwKhxvmP7tBYdWiJ4DmMfhrqedM16ed1eZdPOKumOJsdisvgbl4JwIx3VErHnF5r8fOX5B05NH2xUim1qk7usMR/LA8LW73VORfOYOXt8rf6DEm5TyAEMhHboRGxHB8YwRXg0XgpqREcNF6X7Ck9W3jNWf1SKDRoZMaqycGh6z/rEAC3FUMik6UFF36fu8BacdDoCaFh4avfdlaMl0hUcFgoKOwzOvh+gYQwoj1Uwhmhd4xMmF6ivybczT9TdKCuTexQUcoHycjMjg8J++c7SmXYUx12JQq1D6YfVH27bO3C+rpSq7aeiaRgv/RR+75HoyhWFc/pH1jdUL9zd39P3ScQnJ8PEr3rJVBx5FZTmfIQ6rbqQNm5wivO7n9Y/Dj/6NhXNgAwdrVSCTm91FpfkEhwc0Pt2hnXrp5ssuZ5LI5KSB+9dwceHzbOWTbIZEVn+c2n+93MuE8gAdCTcYZmMpCyCoERa1c2FwQHQEFoDVNBOiv/s2UPL784T+0k36I7iUnjGAkpr6zVace+rNO5x8/oDoEIt/Dq1z565dIBqxMujBl35BsyKWW+M+1o5O3rd/YADwokmDExzlTBBaDiZSD1vwwkrItAySi35NtFcA1oCK2iq4iX9GWSH0UXG46W1LTwXTGOn38IIS19wzN0xsKNCjnwyEqBQACtTfVrp125fKDC2jYJye+sJZNSFzjTDoNRXNbSeNSqw8j7BKLRUNi4e+4PTZBheZmR+l0BMv8rQO5bDHREr8uuM+AgYUgCggD6TV0i/KU9v+5Ek5P9iu74s0IIaSM2LKfRF2xQKqAIpYcWBhgMUEPgy+W2iCNt5KevcjiL7UpJ2hcNdbtyDAaltqf34uLH+emNgSk1lYctwZz3CYQdmJwg6ni4Ea1jtOVlgvRAQ6kHKkoNUFGrgYJZhMwuVmCeJfAydJGpVnUOrlWda75WfMkVy6fu0BkB+JGjN62g+y5cr1SACKWHkzMy6OfW7vvmdauLrqaN+uRVDnvRO84u86fWNOTX1Xz5Q2/vh0c/93wbnycHoAeBSMQmRl8ZbFAwFhBlMZYXuFdUS0NsAmpqDdASW4DU/xJQU+uc+L8zMMFCWIWPHFWM4hsuG6rlv3dcb7zQ1CZy2SzRnQB2KG5kxvrFZMqC12VSKNrTwjATGlr+5v++eX6Ptc8PS/jHUg578TuOJJfrBR2vfucWvU6m7unN8IgkCoEw8x8cTsEPnbfHMN3fNBnRFFtHxKuCLS8z7NpsoMeJLPl2DTgJUPiWWmYbDcUp9RS9FSPZRKg1NmmumZrVV+FWzXX5HcENXmuHWz+a8YlcZgBnwXI//4WrzUspmVvk2D+RERUb933z5AcqlcKqEJKQ8PlTIqNf2wpgp4sDaLT1+bVVe0709n7MsJWLNWrIT6uFu3b1ugRigElM8/LYUSOwOl+AFfpafvZt/Subig7fBtTkBiBnFgMIvpu4WsEos7HGlUcxEtBEKUqqv42SwFWiCv4NrBSuwEjh6qqSGo9V3B09JjuByZr/LBbL/ZteB9G9Yca4C6yjUU+/tO+b1V9Ze+nJLI6klO0/OBq63os9ylvlmzb29q555vVlLvynTAaAQo7qStTeJRCNyrV74ThNgOVl9mU60eMkAKujAxnzOkCZcEDA+eqKAl0pJ4X4JqkMaoIB1pPcmLVQS0STFDg91CKqE9RRcWSZvEF4i2DAtcrrRbfIJnxTbVGVVfv2robNDsVFRC+YGh276h8dAup487et3pvya0CwDo87vPTg96sPW9vEteKw3Pc41Ne5x4jR65fIZFA0sBxihnTFn3UJJD5+QrQrDOsLszjMUIUjLP/W1XA+vl3wfdcfauTwYYFSjYKmNmiIoWkRMTqjAa/Sa0gqg5poAkYoPC02WmfU42EYRhlMxofiylAAMkEQZMKg0QZlu7RFzBdK0ABjJGGJSgIGp9FIVG3SJjGf5kOWqjpk7a2twq7v3wf36nrYu3A7mdzsOAp9xkIqNWuZeRnlzpNva0FjYLUP7tCynw6t+dHaNq4WB4BgcXXlll7L95m/cKi0Ba9J71WvI1ODojrf6/pQaXUmstMLgNgIv6Xsvi3A2pt3WgAAljLCt6uED8Xrl+XZ94X+4PJcAbzwk3aPsPAkanhk9mNBIfOfF4toXLPj6j3LqPvB4YCCQf/xqW+/WnPa2jYuF4f5A9S8/9OO9ku3e3t/DHfDfKkEiun8bxj+K9tPl0AkUhOD6ecqE63D2sRggx0WKxQfm7BgYmho9t+ksqAZJiOKIvbyAGsSGW4W8N+YdfynnUXWtnGHOAwGSWXV7Y96ve/BCQzFUGjz/6Xt9h0Jw3+5TF0CgU3QwHGXByFkMg0VFZuVGhS0cCnWJ3OxTotiicWetso6/P2hiurKl+dczD9QaW0bd4jDsq3bsHOzStnUa4m2pJSVT3YIoPsimFUKdNdmlU1loBGci59/CCEoZMb4YXGLnjCaEmeplFCY+btL1+MZr3fC8JX+/tvZ2fOaGsuslrObxGHZ1r1T8fH/envf7Hsw/Vd+IO2jcjYiEDdCodBQsfEzEumMcZPp9LGTtdoQrtEIMeUDtKCcj0/Zl5cKXl7X1FhmdWVRS72O+Pf3ulocAMDKkpsvr+7riRGj1y/p7nt0A0ulx4fJJLcavEogBAK5z3IMAwnz/wuLnRJEo6eMYPimpdFoqSPQmKh0jfpuak6V9xSrtRkfPCyAwNGNp0/+c4+1B4BoNAGXnrHzP37MrNUAhlxefq65+du3+7oMFRgYSyGQFrzVy4aH3iwO4G0zSGBwanJz41mn3Kt2J0QiGWKxk4Mp1OTEwCDuGAIxaaTRFDzcoEN15anV6+++Bjp4gvRGe+u/FxZcOFBlS7v0jF1mcfyf6yz7C422/rdbZZu39/VM2oh/PqdUQCH99eVVAvH1DbE51MXdJCRxfdVqCofBTBzugwsP4QRnZgIQkqJWorpuumkHac49OqNxf2H+8lX1taVWbzRjcVRCQvI7ay0zh1uAlaVFL6/uLd7KDIcTiqUx5qyW9OI1EcimrvndqwSCQi3a9vi8BW+yWdjG25W/Vxm0rRUyWb2ATEGJqu7k36ZQgZxERCnra4vF1k7ttpCcMo6u0ZrwQiHsG5cwLkahMPlSyREsFI6TGBf7SEy7QB+s1aBY3YPo1EPhXpnlZPzUP345uuYLW7bi/7rs5Nz7HH3R0fHLto72vu+Zj8xYv1gihiJ7ex8Fga7PllcJBACAM+jQgU1NpkAycWIGIJq/te6+kZG5oeuhiFgDn4CHNL50rEihkMoaeDdbMRhgMH99YDCQAYUCcEfbrWK5XNL1lxkbx43VGUwkvR7GAhhAJhhALL+4ACaTzRRJ9L5qDYw36dG+5g9/Z0gBjfaXYY2NpsFcq7NXCES4XSH7+KmjP394wZZ2GCyVmME96vSbgH1hNIlvFF1f905fz/izQgh44sJNij42RiAIdH1uugSCxsBWZZbwBkx6DFupB0ApN4UDQAFUyoSHnmEHjgfsbv8NwwBg0XdfnZgdZZVqaH7wrYHBAHfuVLz4xPVrP1l9vgHuZR/J4B47hkYxhrvOugeBlSU31/S5tAKWcg3b10qlIKqvZyBY0dL5c9eukT8T473xFghuh+HL+z7/j0kZtoojJOLpyaMyj59zrzgAEAhObue3nC7s65lhceP8NZrM9f31VV9X2tr5c9cMolRKpWSqEyxFGNDgcEBEIuWtP3FkzTfWhql3Ehnz3BPD4t//1vVnHPdjXloVX1/b59LKTEr6u28p5JBvf8+RyHCXZ9klEH5bUX0Ax0FLEQY0DIb0fEnRmpVlJXk2beGCu/fHX+NwFr3tiotOfXNvaaWX9XmyNGnKCykKeeJz1vRIIEBdy7QugfjgIB0AlqqdSGb3IQaEgrV0WuGbv55Z80kbn2fTzRIslkocM/7I12RS6hxPfHY6OvpfWlEoNCgo5JVPhELrxMvnl5R3/twlkLqaS01xCZZIcH8HbUYYQJAp0ssiwUfP7T++0+YD2nvO+FE0ipHuGuv65u6u1dp+s55Mn/neQqGQZk3NdAsoSN51QnLfNi+ZapIrZChEIEMADAaWUiiF7/96Zs3WNj7P5vDIkPD5U5JTt+2HTSjP5HKGYPH1K8uX9LdrFRGZTEZh5r9rS9dotKyx8+f7BKJWNVYBENbrAQrC4IDpJz118/qal8vt8DWwOCohMeWdtRzOok221CJ3Mjpewxdv9pd42kz6qM2vymVQn9u6D/bd2lrSlWXkfoGoec04rJNyAyN4HUQi3CKR7F53/MecH23doTJDYySEpqRt+5RMTpnjGgutQ6Es/qW8+M1t/T03ekx2vEab+YotfaNQsIhXd6mrVuF9AvHByuudHr+B4HEgCNbSaOW7Sm7++63ysny7rmGxg6ZnJqdu341B05Ocb6H1GI3yhpKbL/cb9Gh2zGPj3/2vsMO2ZCR03/vvX98nkI6O0iqmn0trNCK4GT9/6albZZvW5/580O4o6cSUd14ODXvhbQBcX22qP+rrd7wlFT9cjfZBJk3bvFTYQZtha/+NDfn3XRm+TyAiUdlNT99LR3AONDpc18T76MX887vO2LOcAvf8jREZ337GoI9f5g3b/wpFyaHayp0H+nsuIXGcLxa78AN7rhfg8fL7yk/fn3pUVN4IACzxhm8KBPtAoWANFnPxk8sFb31YV1tkd35FJiszPiV12w48PmyScy20D4NRUnntyvLVvSWd7sRSLWvM1k8E7SDQnnEU8vL7KgPfv8QSNKpIZHmlUkEdbU/nCJ6DTIF5Ws3ZPbz6/31TdOOU3QnuyJQIdsywDf9gB85bBWDIK4KPzH5HadGLS9TKpn7Tk2XNylkiaA9dZudQan7rhfsOHR8Kd1cqSm4AMA4RyACBQoVrZNKD//nj14++a2/jOXRVKzLmucejol/9CIOhxwKv2a2BxbcqXvsbv+Xc1f6eTEzJilFrZ39m70gUqqmhtrqwpfvvHhKIXF56hUIZ94K9gyC4B18mfFssOpRz/lzOfkeFQSQF+6Wkb93MoE9Y4Q2+Rjd0PN4XbzbWH+61THMnFAoNlT5y29YOgf3uQXt7weUHf/eQQPitFwsolBftHQPBxZDIkosS8aFPfju9+3hrK8/hW+6RMc89ERX9ao5l1vAyxJI/v7HmvMPMozO3rewQ0LIcGU+tLHsopushgbQ2FdbEJZhajQYUEtvrPehIZN7P9bW7Ps8/f+i8vbtS3aHRE0JThn/2CZmcOsvLZg0LGm39b9cvr7AqycMYbvYwnW7GfxwdU6ctfyi59cM+iFJqxKAbbxgNYY85OiCCY2BxJonJWPilUHDoq7wTB+44p08qISLq+aejYl7NATDklTXxjUZJ2Y2ry1f0F2cF7qUOjYza/JVYDNEcGRPnY2qqunPqobOiHu+kGwzlFwFABOIp8ATxZY3q9J7i67sON9SXyZzVLztoemZK2rbtluhbr3HCHwAyiUtLVj9vzWGgmUembPunWEzlOjosDtt0TaGQGh/8fY8CaajPPRUcMvM9RwdFsB4IBWvJpMa8hvo9n1aU7v/TGcuoTsxOeGr61s10+vglAHgswNAKYElZyZqnW5v6r19uZsKkF4ZLZZlOKfLZ1JR7sqff9yiQ2qpTJZHRpiadFhXsjMERegdPFF+SS08dlIhOHcq9kuvUEtDm5VRs3CvPh4W/sBH20uVUN3Q83hdvWLNjZSYsIokaFvHudx0C4OOMsWFTRY9ZW3oUiFIpNRAITZd02tCnnDA4wgPQGaBcJMz9USLKO1xRlnfLmbNFJ0EhsyckJG/ZgUEzkmBvXU79ha615fs3rd2xolBo0CNT9m1tbwMJzhiczoCrevPxes2L1cjLy6VSVyECcRJmv0KhuHha2H7qp/zzeWWuqoXix8qMix72ynoGfXw2ABDBFWM4G6Wq6EjR9XVW70JNmf7e/Pa2kGecNX4bP/dYb+/1KhCl/OIZKnUVckfdTiAUrMBieX8q5YWnW1tyT/DqL9a7YqboxOxnxAxb//fAoOx1ALg3q4gjKJQlhy7lz3vW2ueTU6eHAbDgc6faoLh4prf3+iya81R2Vb5SQXd4h2CIoGP4wpWNvNw8o7G8oJmXd76hvszlxZgtwoh75e9BQYteGgB+xn3I5SVHL1+cs9ia7Vxwb2k1/bFTB5XKaKdlaySS4PpTJ2KilcqHd7BAf6lHBe15R4jEbEQgvUAgmRpw2KZrTbxfjrQ0nz5fW32xxV1j3xXG+r8HBWVbhDEA/Iz7MJpEZaXFa9ZZKw4zU6e/97QzxQEs27vlP/cmDtCfQISCvJ+IYdkfIMssy/68gs1GVfL5+QX81oKrem35hfraizyFwr11FQe6MMDdbCRlly/Oeczasw4zGWOz403wgi+cbUtD/YFDfb3fb13Cx+dezTPow22+mTWQQWONrXSq8pZIVFrW1HThJjA1lyjk5Xdqa0o9lsvd7HwHBi1cEhSS/by3noBbg9EoKbt88cnHpBLrxREWnkydMOn3wo4O2Cm7Vp3Q6KD85LHo5L58w36zu4uFp7+nUFcNPoFAJiWNBrXq9LxbBl1zVU3NnxV4H0WtWFxyR8Cv4HtLxV120PSR4RGr/s5gjJtvOeQbgDNGJ/aIg0KhocZO2PuFs8VhRi7LPdDfxkm/AqmvO/BLyvDnlbAJ5cUnsJ3ASghtUhKIQEUjY6QicUOTUFQnZjFxzWVlf9aTyLBC2F5RDFASCQalENZUl3plITQsjkoIDl3wWHjkyr/jfcK5g2GJazTJa2wVh5lFy37exOOFLHK+RbC+ufHQt/091a9AmnjlksTkkhMoVNpCp9nWB0rlTxuKrn/xU3hkaojRCD+UkcJoUIpammvulvWFTACDhQ0EPKRGoyCjyahSNTVVD9j6TgGBU0exOXOeDgjImotGU2zJ5eTVmMVx/XL2E7aKY/ZTu57l8RI2ucImEqn5TNGN3Ob+nrOqgI5UcuYww9c9AvFnjeLKpC/klNwsrnXHeJ6GQAz2i4heuSgoeOHzGDQjdjDMFt0xGs0O+WybZ46nFmyfp1TNNTvlLin42cjb32t56O5YJZC6miPn/FivSI0GlEMhxdagVodMDg5NpJtnLleP5SnMS6gA9gxuRNSqF8nk5MmDNUmG0SQqu1w4x2ZxPDL5xVSNbv4+V31ZYLAmSUf72VyrnrXmoTZ+jZyAr9ivUCS5/KohbIIoUdHZM5t4m/a7eix3YhEFZwY3gD1zdkDAzNkwDAV52iZXotHW/37j6vJnbNnKNTPhkUWRLM7bJ+QyiOgq2yBQuLOmusiq6vRW1yisr9u13c//s791L2DpKmiM6UsAGPgCuU8U7KzZsAllEcVAPLuwBUv4yIU5z/ZXs+NBwiKSKSzOOwfksv7LM9sNBOsa6nbvsPpxW/qe/fS1X7Qad1ykgnVNvGdiSotzbfr28QaIpGA/XyY3jcXOms02iwJGDeqZ4kGUquKDhRfmPmvLCbmZmJgUPPeRI8fa+LTprrMOABarce/er9KtDnS0qcqtVHzoEzxhgxsEAuHItEcXAZDr8D1jd0BjJEewAqZPCWBnzaRQkid1+hSDfaZ4AF1Ly/dvVZS+8amt4qBQaFDy8K2fuloc5i/eO7dzPrClhU0ziCVYbNbVfKWCMdZm22yERIbrLvw2Mr6tzfbaFa6GRk8IpVCTh/kyx05kc7KeRKMZUQCAARFa7hpgZSt//7tFV9d9aGtL82dq9vyj73e0J7/mGtv+wt+/cd++r9OX29LGphlELpfCLU1fvkejb+jxeqIzUSqgiLDI+dPb2j762dVj9QfTPzOeSk1KpFCT09icGWZBRJg17Gm7vAIIFpcWr366qcG6m4APMm7ie8vcIQ6z71F1J+d9m5vZ2oBMpqGnZl0r0GroGba2tXksqiT/1M8jJ7jyHsWDMFmZ8QR8aDCFmpTK9Bv7CJWaPAqGLUumQXU+4QwMRklZafHqlfzmvmsE9sbjT25fbDAt+Nodf7asgMZv9+5JX2FrO5sFYoY7Yf0MKm1Dnj1tbUWn2zLp19M5553dr3mZ5IMP8qfSUjOIxNBACjUxjUpLHgUQMViFRnNvG9fGM45O5i/aNkeuWHDQHVVx0WhY1tz4TMrN67kNtra1SyAUCg017bHLv6uUjAngXvQcBND2dNUvPj4NJ389PeVxW2YRLI5KoNETwk0mFEQkhgQRiCExGAyNSKUmjcZiaUQKNWk0AJZ9dmSZZDs6par4iD07VZ08Pnv7IoNp/jfuKhlNJFzc/NPhJ/9tT1u7BGImJGz+lKSUHbmd37YwMN7rDgIAMgIAQwACKABDJgADGEBw53v3Pucw6Hoe6scMsfiLBSKhlHl3VwiCzG1hGLI08mNlZsImCAdbLr90ffgBUq3XFcASXsPON8tL3rArQTSZTENNm/ntvzXqca+7a5YmkeCm2+Vzk8tK8+2KzLBbIGYyuEe+9vUdb/O67kEs4urLkntiQ/AcEMrUXlq8ZpG1aXkehBUQRcl6/PSB9jaaWxMSYrEHl/98ZM0+e9s7JBAqPTGMO/73KwAM3As8CP1jCRu5Yr+/ERSc5DtxyonjYhF5nPOt6x0GQ3rm56MjshQO3O1xyHHQagRSnA9FR6ePciirNoL3IhZf+OpywdwlKmWT0J724ye8MCIpbe8piRg33PnW9Q4Ewdqmxg1z6mquCRzpx+F1S9Xtj/YYjJKbjvaD4G3AypaW7/917dLSl+xxxikUGmrq9M+eozDeKZBKQIxrbOwdEqnw3SuFB/qto94fDi2xOmEHzsgcPmJf7mAN2x5qGAySytu3Nr7YWH/4N3vaJySN801K3fqFXBbq1Awk1oLFSYov5U/JaHdCFIZT9mYV8uomAOB2pt+4mc7qE8EDQLCMz//xv9evLFsh6rhi87cvnkBGZ47buDAs4qMTSoXrD5J7wscH7qivWzertvqSU/IcO2UG6YQ78bfDVGry087sE8E9aDQNv5cWr3mpo73QrmXJ8PSZ4XFJW7+UiOlTnW+d9Rj0u546e2rTT87qz6kCIRBD/LkTfj+PxdKcnoECwVWYfY39mytK39hqp68BTZi8eTEavWCbXu/ZJbY/i7f36OHJK5wZmuTU5ZBBL1NptW1VAeyZC5CllvdjmTVKVj9Tc2fHQZNRa7C1fXQMlzN+0oGvtNpxm0wm6KEEG+6EyQS3L5yfPbe9rdGp0d9O/xDLZeW1BGIITKUlT3Z23whOAoLFLS37/3P9yjMvySQVdbY2J5NpqKkzcpawAzefUKvpI1xjpPWg0bBaKHhjRtGN3EZn9+3UJVYnGCyVmJF5bC+VloyUT/AudBptQ0Fpkf2+RmrazMjUEZ9tE7TTZjrfPPtAow4t/eX46u9c0bdLBGKGQAjx505E/BFvAYLg9urqD9dXVnxsV9gFKyAUP3natnVKZeZrBoNjBTOdCYVStiPvxOw1rroS4TKBAMsfahZ3xOh9vwAAkPMRjwErJZL874pvvLxJpWzqsKeHSVM3TCFTn/uvQc9Icb599kNnSM5fLZyXVV1V4rJkgS51pJXKavOasI3px0XORzzA3a3b1c/cLn9/p60ZRszEJXD9xk74+lMUal6OyUQIdI2V9sHwBXXVt194oqw0X+TKcVz+oRUJLxYRCIjT7l5gZXPTt5tuXP3bOnuc8ICAUJ+pMz77ux9r0096HWect3254fGAX1/zctbVK0dqXD2WS5dYnWAwVGLGWMRpdz2wUizOP1xdmbOlo73wtq2tSSQa5pGpm5dRaQtek4ght8dPWQMKBWuxmD2zj/30+il3jOcWgYB7Iskcf/o4mRzt0ZPWQYpOo60vuFW2aSO/xfb74WQyDR2f/PysoOBV/3JHrgFHwOHOrD/+0+KP3DWe2wQCLEnVojgTJ18qRm77OQ2dWtNwsfrOlveaeIfP2dqYFRDqk5jy/GxO4KpNYhGU5BoTnYcPrvzz07mz1qjVCrfVbnGrQIDl8syCaSnDt3+PiMQxDEZxeUP9rg8rKz62Kkt5d0LCkuixw1YtwhOnv2gyMrxeGGZotMaDJ45NWqJU9F5P0BW4XSBmKNTE8Iyxx08iZyS2YxFG3a4tdTVf/mBr7FQmNzvOjzV/BRrNfU6rhXxdZ6Vz8WdJz+WfnzPbEyXwPCIQgIjEVnQGo7iyoW5Xjq3C8GeFElLTVz5GJM14Vq8LneKO5OPOxJPiAJ4UCEBEYg06jaahoOrOlvdt9TGSUucmxyesedFgTJyjUUNs15noOsw+R2H+sn94Mv2sRwVixpc5NjF91L6jWCzNK7cVPQOs1OoaLlfdyXnf2iwiFAoNCgrNjPJnZc3xD8iao1YyRrqqOpM7wOPLdpzJnb22rxrm7sDjAgH3drfS0nd+TqOnPTaQ/1IdxWiU17S35x6pq9n1uVRcWt/XswHsKAqNkZJAoaaOIlNSRrFY48Yp5FCk+6x1DSg0rCESzr76y/FV29Uq9+1W9YZXCKST5NTPNgaHZr8xtFJ/wkq5ovRMfc3uz9v4eQU9+Rd+/iEEDDYomBPEHcHhjBuLJyaN1KioyTCMInvGZtdAIMCtgrY3Zl34Y+cNT9vSiVcJBFiqDK2cnZD03jeDPcARgmBFU9OBrVJx3kEiUc5XqY0ElRom+vnGBkJo/ygOJzVMoyVHhoePTxGL4CAYRjE8bbMr8cFLbooEbz715/n9XlW81esEAu5FAacM37Z78DrvMIAwRh1sgiTAhIIAgIb0mVBgkOz4udOzlzbUlVpVN9CdeKVAwL0drvRR+74lEkMnetoWBFcB66jUi2+d/Hn5h45kP3QlXhWl2R2dViBpbjx4mM4YGUAkhiZ5s60ItkMgwq2w6culR39Y+bVOp/XaYnVe/aEzmbT65qaDJ/R6aZk/a8oUpFzB4IDJlJ2quv3CnD9+33nV07b0h9cusR4EWXINfCAUrKWSL7594tjyLZ4+37AWr55ButO55EKh8R0MxkguAMDH0zYhWI+Pj/yWVLx55skTr/yg13vvkupBBoxAwL0lV4fgt0tKRU0h038CF43GMz1tE0L/UGkNh64VLppXUnzS5tuNnmbALLEepNuSK3NoHSwOHEhkuE4q3r3+UkHOEXcWYnUmA2oG6Y55ydVQt/tbvV56h84YmYhG44f0WYI3AUGwluFbvuNSwcL5N64dLNLpvK7UvdUMWIF0IpVcr2htPvoDBkOVUmnJGchs4ln8/KV5jfUb5p06+cr/pJJ2naftcZQBu8TqCQo1KTw+cfNGph93GSIU94LzkRSJOr58rej6rjMDdTnVE4NKIJ3Exi0cO3b85n+18WmPIkJxLVQaXK2QH/rg2uWc79v4nru34SoGpUA6SUpdMDI2bsO/1KrQWYhQnItZGHLZwf9cu/zR9+1tPJdlNvQ0g1ognaSNWJiWkLhhvVgS/JS7itcPVnx8JFcM+lM7r17K2e/Jm37uYkgIpJOx47KHhUasfEmtTpyv00IBnrZn4ADr/FmyPxvqdm25cXX3r3IvDSx0BUNKIJ3QGQH4yOi5EzmBc5dAqNTHjAZoUN+1sBcCUV4sEp46JBQcP1BafLrPG46DlSEpkO4w/UJIqcNXzfL1y8pWKkOmABgaVLf0bIVChWu1moLDzY2H9t+5lVc2mHak7GHIC6Q7QSGJvrHDsqex2FnzlcrgqUYDiuppm9yBWRQoqDy3pvrAT7fKDl1QuDk5mzeDCKQXIqOSSQxmZgadMXYyw5c7SamgpQIADY5wewjWkSnSKy1Nub8o5BfP1FSeKlYoho5fYQuIQKwkODSR4c/ijiCQMrMiI2ZNEwrhYQMnCRusZPqBGpHw4nmRMP8PqaTwj1vlBUJPWzUQQARiJwmJXCaemJRKJielswMnTtHrAxI0alSop+0CAOjwRBPfaKi5IZNcuyCTlRe1t+XfbOKViz1t2EAEEYiToFBoEIuTwMZiwsLRuMCEmKiJ8WodKTiQkxYvEhuYOg2K7rwlGizB4k1KJgMjbGktukXCqxruVJ6vhI0tpQYDr77y9sV254yDgAjETURGJpMBmkyTy2GyUY/CxMZxY9UaI81oAiijAaD1OtR9CfOwOJMBjQEGNAqYCHi0rPJ2wR001mSgUCCFXNokErQ32lz0HwEBAcGpoDxtAAKCN/P/AQAA//+EOdR8+i3PrgAAAABJRU5ErkJggg==;imageBackground=#ffffff;" parent="NAwcZZ_wHCe8-uJfkV1U-92" vertex="1">
          <mxGeometry x="415.77041761029085" y="280.1505882352941" width="66.61210616903706" height="66.61210616903706" as="geometry" />
        </mxCell>
        <mxCell id="NAwcZZ_wHCe8-uJfkV1U-213" value="&lt;font style=&quot;font-size: 14px&quot; color=&quot;#4277BB&quot;&gt;Web Presence&lt;/font&gt;" style="dashed=0;outlineConnect=0;html=1;align=center;labelPosition=center;verticalLabelPosition=bottom;verticalAlign=top;shape=mxgraph.weblogos.wordpress;strokeColor=none;fillColor=#ecbf1b;spacingTop=-85;" parent="NAwcZZ_wHCe8-uJfkV1U-92" vertex="1">
          <mxGeometry x="560" y="283.86" width="60" height="60" as="geometry" />
        </mxCell>
        <mxCell id="6qygh8IlFuuTyOwgghLc-16" value="" style="rounded=0;whiteSpace=wrap;html=1;labelBackgroundColor=#FFFFFF;strokeWidth=2;fillColor=none;fontSize=14;fontColor=#4277BB;strokeColor=#4277bb;" vertex="1" parent="NAwcZZ_wHCe8-uJfkV1U-92">
          <mxGeometry x="1082" y="77" width="30" height="490" as="geometry" />
        </mxCell>
        <mxCell id="6qygh8IlFuuTyOwgghLc-17" value="Availability Zone B" style="text;html=1;strokeColor=none;fillColor=none;align=center;verticalAlign=middle;whiteSpace=wrap;rounded=0;labelBackgroundColor=#FFFFFF;fontColor=#4277BB;fontSize=16;horizontal=0;" vertex="1" parent="NAwcZZ_wHCe8-uJfkV1U-92">
          <mxGeometry x="1065" y="219.85" width="34" height="183.65" as="geometry" />
        </mxCell>
        <mxCell id="6qygh8IlFuuTyOwgghLc-21" value="" style="line;strokeWidth=2;html=1;rounded=0;shadow=0;glass=0;sketch=0;strokeColor=#4277BB;" vertex="1" parent="NAwcZZ_wHCe8-uJfkV1U-92">
          <mxGeometry x="1062" y="313.65" width="10" height="10" as="geometry" />
        </mxCell>
        <mxCell id="6qygh8IlFuuTyOwgghLc-27" value="&lt;font style=&quot;font-size: 14px&quot;&gt;Load &lt;br&gt;Balancer&lt;/font&gt;" style="outlineConnect=0;dashed=0;verticalLabelPosition=bottom;verticalAlign=top;align=center;html=1;shape=mxgraph.aws3.classic_load_balancer;gradientColor=none;rounded=0;shadow=0;glass=0;sketch=0;strokeColor=#4277bb;fillColor=#00B09E;fontColor=#4277BB;" vertex="1" parent="NAwcZZ_wHCe8-uJfkV1U-92">
          <mxGeometry x="706" y="152.5" width="60" height="60" as="geometry" />
        </mxCell>
        <mxCell id="6qygh8IlFuuTyOwgghLc-28" value="" style="line;strokeWidth=2;html=1;rounded=0;shadow=0;glass=0;sketch=0;strokeColor=#4277BB;" vertex="1" parent="NAwcZZ_wHCe8-uJfkV1U-92">
          <mxGeometry x="770" y="181" width="10" height="10" as="geometry" />
        </mxCell>
        <mxCell id="6qygh8IlFuuTyOwgghLc-15" value="Availability Zone A" style="text;html=1;strokeColor=none;fillColor=none;align=center;verticalAlign=middle;whiteSpace=wrap;rounded=0;labelBackgroundColor=#FFFFFF;fontColor=#4277BB;fontSize=16;horizontal=0;" vertex="1" parent="NAwcZZ_wHCe8-uJfkV1U-92">
          <mxGeometry x="1034" y="184" width="27" height="255" as="geometry" />
        </mxCell>
        <UserObject label="" link="data:action/json,{&quot;actions&quot;:[{&quot;toggle&quot;: {&quot;cells&quot;: [&quot;6qygh8IlFuuTyOwgghLc-356&quot;]}}]}" id="NAwcZZ_wHCe8-uJfkV1U-205">
          <mxCell style="strokeColor=#dddddd;shadow=1;strokeWidth=1;rounded=1;absoluteArcSize=1;arcSize=2;" parent="NAwcZZ_wHCe8-uJfkV1U-92" vertex="1">
            <mxGeometry x="8" y="313" width="175" height="60" as="geometry" />
          </mxCell>
        </UserObject>
        <mxCell id="NAwcZZ_wHCe8-uJfkV1U-206" value="&lt;font style=&quot;font-size: 14px&quot;&gt;Search and&lt;br&gt;Discovery&lt;/font&gt;" style="dashed=0;connectable=0;html=1;fillColor=#5184F3;strokeColor=none;shape=mxgraph.gcp2.hexIcon;prIcon=cloud_jobs_api;part=1;labelPosition=right;verticalLabelPosition=middle;align=left;verticalAlign=middle;spacingLeft=5;fontColor=#999999;fontSize=12;" parent="NAwcZZ_wHCe8-uJfkV1U-205" vertex="1">
          <mxGeometry y="0.5" width="44" height="39" relative="1" as="geometry">
            <mxPoint x="5" y="-19.5" as="offset" />
          </mxGeometry>
        </mxCell>
        <UserObject label="" link="data:action/json,{&quot;actions&quot;:[{&quot;toggle&quot;: {&quot;cells&quot;: [&quot;6qygh8IlFuuTyOwgghLc-393&quot;]}}]}" id="NAwcZZ_wHCe8-uJfkV1U-203">
          <mxCell style="strokeColor=#dddddd;shadow=1;strokeWidth=1;rounded=1;absoluteArcSize=1;arcSize=2;" parent="NAwcZZ_wHCe8-uJfkV1U-92" vertex="1">
            <mxGeometry x="8" y="243" width="175" height="60" as="geometry" />
          </mxCell>
        </UserObject>
        <mxCell id="NAwcZZ_wHCe8-uJfkV1U-204" value="&lt;div&gt;&lt;font style=&quot;font-size: 14px&quot;&gt;Data Analytics /&amp;nbsp;&lt;/font&gt;&lt;/div&gt;&lt;div&gt;&lt;font style=&quot;font-size: 14px&quot;&gt;Dashboards&lt;/font&gt;&lt;/div&gt;" style="dashed=0;connectable=0;html=1;fillColor=#5184F3;strokeColor=none;shape=mxgraph.gcp2.hexIcon;prIcon=advanced_solutions_lab;part=1;labelPosition=right;verticalLabelPosition=middle;align=left;verticalAlign=middle;spacingLeft=5;fontColor=#999999;fontSize=12;" parent="NAwcZZ_wHCe8-uJfkV1U-203" vertex="1">
          <mxGeometry y="0.5" width="44" height="39" relative="1" as="geometry">
            <mxPoint x="5" y="-19.5" as="offset" />
          </mxGeometry>
        </mxCell>
        <UserObject label="" link="data:action/json,{&quot;actions&quot;:[{&quot;toggle&quot;: {&quot;cells&quot;: [&quot;6qygh8IlFuuTyOwgghLc-428&quot;]}}]}" id="NAwcZZ_wHCe8-uJfkV1U-209">
          <mxCell style="strokeColor=#dddddd;shadow=1;strokeWidth=1;rounded=1;absoluteArcSize=1;arcSize=2;" parent="NAwcZZ_wHCe8-uJfkV1U-92" vertex="1">
            <mxGeometry x="8" y="103" width="175" height="60" as="geometry" />
          </mxCell>
        </UserObject>
        <mxCell id="NAwcZZ_wHCe8-uJfkV1U-210" value="&lt;div style=&quot;font-size: 14px&quot;&gt;Learning and&lt;br&gt;Integration&lt;/div&gt;" style="dashed=0;connectable=0;html=1;fillColor=#5184F3;strokeColor=none;shape=mxgraph.gcp2.hexIcon;prIcon=cloud_speech_api;part=1;labelPosition=right;verticalLabelPosition=middle;align=left;verticalAlign=middle;spacingLeft=5;fontColor=#999999;fontSize=12;" parent="NAwcZZ_wHCe8-uJfkV1U-209" vertex="1">
          <mxGeometry y="0.5" width="44" height="39" relative="1" as="geometry">
            <mxPoint x="5" y="-19.5" as="offset" />
          </mxGeometry>
        </mxCell>
        <UserObject label="" link="data:action/json,{&quot;actions&quot;:[{&quot;toggle&quot;: {&quot;cells&quot;: [&quot;6qygh8IlFuuTyOwgghLc-410&quot;]}}]}" id="NAwcZZ_wHCe8-uJfkV1U-199">
          <mxCell style="strokeColor=#dddddd;shadow=1;strokeWidth=1;rounded=1;absoluteArcSize=1;arcSize=2;" parent="NAwcZZ_wHCe8-uJfkV1U-92" vertex="1">
            <mxGeometry x="8" y="171" width="175" height="60" as="geometry" />
          </mxCell>
        </UserObject>
        <mxCell id="NAwcZZ_wHCe8-uJfkV1U-200" value="&lt;div style=&quot;font-size: 13px&quot;&gt;&lt;font style=&quot;font-size: 13px&quot;&gt;Machine Learning /&lt;/font&gt;&lt;/div&gt;&lt;div style=&quot;font-size: 13px&quot;&gt;&lt;font style=&quot;font-size: 13px&quot;&gt;Artificial Intelligence&lt;/font&gt;&lt;br&gt;&lt;/div&gt;" style="dashed=0;connectable=0;html=1;fillColor=#5184F3;strokeColor=none;shape=mxgraph.gcp2.hexIcon;prIcon=cloud_machine_learning;part=1;labelPosition=right;verticalLabelPosition=middle;align=left;verticalAlign=middle;spacingLeft=5;fontColor=#999999;fontSize=12;" parent="NAwcZZ_wHCe8-uJfkV1U-199" vertex="1">
          <mxGeometry y="0.5" width="44" height="39" relative="1" as="geometry">
            <mxPoint x="5" y="-19.5" as="offset" />
          </mxGeometry>
        </mxCell>
        <mxCell id="6qygh8IlFuuTyOwgghLc-439" value="Click to see workflow:" style="text;html=1;align=left;verticalAlign=top;fontColor=#4277BB;shadow=0;dashed=0;strokeColor=none;fillColor=none;labelBackgroundColor=none;fontStyle=1;fontSize=16;spacingLeft=5;" vertex="1" parent="NAwcZZ_wHCe8-uJfkV1U-92">
          <mxGeometry x="10" y="63" width="130" height="30" as="geometry" />
        </mxCell>
        <mxCell id="NAwcZZ_wHCe8-uJfkV1U-194" value="" style="shape=image;html=1;verticalAlign=top;verticalLabelPosition=bottom;labelBackgroundColor=#ffffff;imageAspect=0;aspect=fixed;image=https://cdn3.iconfinder.com/data/icons/user-avatars-1/512/users-14-128.png" parent="1" vertex="1">
          <mxGeometry x="503" y="20" width="128" height="128" as="geometry" />
        </mxCell>
        <mxCell id="NAwcZZ_wHCe8-uJfkV1U-192" value="" style="shape=image;html=1;verticalAlign=top;verticalLabelPosition=bottom;labelBackgroundColor=#ffffff;imageAspect=0;aspect=fixed;image=https://cdn3.iconfinder.com/data/icons/user-avatars-1/512/users-10-3-128.png" parent="1" vertex="1">
          <mxGeometry x="405" y="20" width="128" height="128" as="geometry" />
        </mxCell>
        <mxCell id="NAwcZZ_wHCe8-uJfkV1U-189" value="" style="shape=image;html=1;verticalAlign=top;verticalLabelPosition=bottom;labelBackgroundColor=#ffffff;imageAspect=0;aspect=fixed;image=https://cdn3.iconfinder.com/data/icons/user-avatars-1/512/users-5-128.png" parent="1" vertex="1">
          <mxGeometry x="602" y="20" width="128" height="128" as="geometry" />
        </mxCell>
        <mxCell id="NAwcZZ_wHCe8-uJfkV1U-190" value="" style="shape=image;html=1;verticalAlign=top;verticalLabelPosition=bottom;labelBackgroundColor=#ffffff;imageAspect=0;aspect=fixed;image=https://cdn3.iconfinder.com/data/icons/user-avatars-1/512/users-3-128.png" parent="1" vertex="1">
          <mxGeometry x="799" y="20" width="128" height="128" as="geometry" />
        </mxCell>
        <mxCell id="NAwcZZ_wHCe8-uJfkV1U-191" value="" style="shape=image;html=1;verticalAlign=top;verticalLabelPosition=bottom;labelBackgroundColor=#ffffff;imageAspect=0;aspect=fixed;image=https://cdn3.iconfinder.com/data/icons/user-avatars-1/512/users-7-128.png" parent="1" vertex="1">
          <mxGeometry x="700" y="20" width="128" height="128" as="geometry" />
        </mxCell>
        <mxCell id="6qygh8IlFuuTyOwgghLc-2" value="Web Services" style="text;html=1;strokeColor=none;fillColor=none;align=center;verticalAlign=middle;whiteSpace=wrap;rounded=0;labelBackgroundColor=#FFFFFF;fontColor=#4277BB;fontSize=16;" vertex="1" parent="1">
          <mxGeometry x="243" y="598" width="150" height="20" as="geometry" />
        </mxCell>
        <UserObject label="" link="data:action/json,{&quot;actions&quot;:[{&quot;toggle&quot;: {&quot;cells&quot;: [&quot;6qygh8IlFuuTyOwgghLc-59&quot;]}}]}" id="6qygh8IlFuuTyOwgghLc-23">
          <mxCell style="strokeColor=#dddddd;shadow=1;strokeWidth=1;rounded=1;absoluteArcSize=1;arcSize=2;glass=0;sketch=0;fontSize=16;" vertex="1" parent="1">
            <mxGeometry x="30" y="552" width="175" height="60" as="geometry" />
          </mxCell>
        </UserObject>
        <mxCell id="6qygh8IlFuuTyOwgghLc-24" value="&lt;font style=&quot;font-size: 14px&quot;&gt;Metadata / Data&amp;nbsp;&lt;br&gt;Contribution&lt;/font&gt;" style="dashed=0;connectable=0;html=1;fillColor=#5184F3;strokeColor=none;shape=mxgraph.gcp2.hexIcon;prIcon=logging;part=1;labelPosition=right;verticalLabelPosition=middle;align=left;verticalAlign=middle;spacingLeft=5;fontColor=#999999;fontSize=12;" vertex="1" parent="6qygh8IlFuuTyOwgghLc-23">
          <mxGeometry y="0.5" width="44" height="39" relative="1" as="geometry">
            <mxPoint x="5" y="-19.5" as="offset" />
          </mxGeometry>
        </mxCell>
        <mxCell id="6qygh8IlFuuTyOwgghLc-437" value="" style="shape=image;verticalLabelPosition=bottom;verticalAlign=top;imageAspect=0;aspect=fixed;image=data:image/jpeg,/9j/4AAQSkZJRgABAQAAAQABAAD/2wBDAAYEBQYFBAYGBQYHBwYIChAKCgkJChQODwwQFxQYGBcUFhYaHSUfGhsjHBYWICwgIyYnKSopGR8tMC0oMCUoKSj/2wBDAQcHBwoIChMKChMoGhYaKCgoKCgoKCgoKCgoKCgoKCgoKCgoKCgoKCgoKCgoKCgoKCgoKCgoKCgoKCgoKCgoKCj/wgARCAEGAmQDASIAAhEBAxEB/8QAHAABAAIDAQEBAAAAAAAAAAAAAAUHAgQGAwEI/8QAGQEBAAMBAQAAAAAAAAAAAAAAAAECBAMF/9oADAMBAAIQAxAAAAG1AAAAAAAAAAAAAAAAAAAAAAAAAAAAAAAAAAPn1DW8JDR4dPmcSxaegygZnbm9Ro5gAAD4fXOcn1rY0NW7RXtdTlXSOo9OT+S7uVrFSbmzpjo+E2Ii5TPYEgAAADEyw4ngy2I2s5Y7Xfr6MLw9aF7ksFhmCFJmCrTQO+8ob3J7pasgy/Vb2IegB4Hvo8BxxZujzMkS8zxUEXlnRtknUgAAiNSUi/J3trVz52nx7XnAADk7RL1/GY7+Y9u0ePr2fW5rcDN9QzWit/2c5CJ+a+yREyXppI3VYd1TjKi+gAAD5Vc1wQsOcmTz9AY5DmK1vHxOe6diQ9PyHRn2wPYAIeYFKStkUuXs5LrTzqDoOVPaz5DYAGGY4avL85Ax7GhbrN8AGlFSsV5e1ljln7dAPb8wJDl4pp8T9+elyEl1t9sn22PO6BysAAAfOXikxW3h5cPKdLFWdbpsOekdHpyArIDDOCKn7ivbzNwAAADmulrw4q8qvtYAAHmenA9Fy5A2/QtulUWZVt9GYAAAKc6DZ5YuMAGlFSsV5e1ljln7dAPb8wJR9WTEJw8gK5sbGrv521XOqOXjTYriNmevXOV809c4eNUsbnuC86ZpOMOeNt+tkX0M/esNfqaG/EdRurYT5983qA5PrOXKsvugr7MgAAISbp4s/hN/TM7HpHIuWGqCUO0hUucfFW7NlNy1qjg9zsOXK3vCir1AAAAOWrmwuALsABpRUrFeXtZY5Z+3QD3PMQ8xX1eHNDP4oAAAAAA3ltHo+i6Hrv8ADPxrjTu9YL49Hn7WxAdFivAdLT9gHRjPdo7woC3uDwLgY5AACnrhp46P28exKWtao7ZJz3AAABHSI/P95VRPFjgAAGscBo8/ZB1wANKKlYry9rLHLP26Ae35mNQ2ZVXTJmx+8fP+vn3jzPn2Kj4fXzaW1k1NW68VJ2FJX1ct02el02bsFy/Na529Q2UdHo2fnt7VzPV7SXY8danSJX75+mDoBFU3fMCcbZlI5F4OAmjpXORh21N5RB3ffc30hXnIXhWR3knQ/blgoffNlHwJ1VYROZaMrrbJz1SX5xht9RQnXFmoKUNlHwJ1VUaA9Lk094AA0oqVivL2sscs/boB7fmc7W/f8B6HINFfly1FceO+prybHMX7bw8vX5qTbcc5C9I72HrzQ7x1HM4tNAvCR9bLz3+afrWGe3hgehzmbPg/nn9JbZjZLhYADw43uRUUbd4pDfuAV/2e6AAOY4q3BQmv+gvAoeYuXM4XtvQAAQ3CWoKH1P0F4FDS1z+hwXb+wAAA0oqVivL2sscs/boB7fmcnwNi116PIO9fu1qImRzi0JLx0xlh9WAgAbETr9PO9Nkv56OpXPOfTUN/NPQtrcZkKx7eq+NrWlI6RzX+iAADX0q0plsmUpyQrxtZr7HXeCRgZoWOR1bjvQ61BTRmEgDzPRC6B1LjyOwcxKEmEgAAaUVKxXl7WWOWft0A9vzIarrmpvbzxGugAAAA3YnSz7HrM9uN7PZictpTjeeitNcsTVQdLWZjrPvIed05vQ15ffSxN7T3fM6gAAcBzHY8dn8YfK5+/wCogp3R7j584K3SV5TxTAAD18h2XU1J1Key09yLhzEDimAAHz6JDuK3zLYR8hFgANKKlYry9zLHLP16Ae35iubGdIpbG6dfTSn1tecqp+Wx7FQ7dt+tZrOY7RymHl/Hn6T08bwUJ3r0vN/GugWgTNZ+2Zj5ef01Ku2NTZR1vK2PSZba8fbD0AAA8eG79XlVfSdgjkPO+rleSzwmoBI96Vv423rJq1KxSHyU64298i1fQtkQkxyW/YvvCuNC1sSpnQc/MATdgVNa8TkEgaUVKxXl7WWOWft0A9vzAl5enP1t3rdSl/vSLm8KewRa0fXa7soaGdY+/DpAIAPvaUmKsbPS8/p6Vh8j9dR7aKzHcxc95nX3yOcgAAAAIWa5s4gTV8+5ljyJFgNeLnAAPh9+cnzCLD0+A+y7twhHXciAHy0avs1O8IkDSipWK8vayxyz9ugHueYAr+wPO8U18nIP0uQWgAAAbMTrSXVdXmtFTHnxWa09XHh83UH3rV1up1mLpsSGHtluAAAAAA57odBFZvn2YAtjPl+oiQSQXMosNFSo5Dr6rPATA7I5H0tMmq/CzqwR9As2srNTvCJA0oqVivL2sscs/boB7fmBIDxryyfO8U187fjPQ5eY6CWnOc8bJWJKZ7cn1DmuE9RzvFRuiu9omqo2Dw6Lbn8V8ZVs5rvoAAAAAAAVrHWPXU1xB96XmR3UfyozwD5NQ2wWRWFrVymOCFg196FruC1Yma5H59mAFm1lZqd4RIGlFSsV5e1ljln7dAPb8wJAAYRsr8ObnmtMSGrAc50jpYKJ8dVfLy2fvauqkdyswft1MpwnnOgkN3NfU3/T0pPz6AAAAAAAACFmiKp8rT5eXKN/QQY/T63Jw56wdvYiUJNipFichMRT7gZPsoR2dg8aRLcGnZte2IncESBpRUpF+VtZY58O0+Pc8wAAABjkPHx3BGeUt8If5MCI9ZP6aPts/Tzz+gAAAAAAAAAAABjkPHPMAAAAfPL2GOQAAAACP5219U8j0G34zOjj6D08YAAAAAAAAAAAAAAAAAAAAAAAAAAAAAAAAAD4Q1/I5X+5ktn6dKBL/8QAMBAAAgICAAQFAgYCAwEAAAAAAwQBAgAFEBEgMAYSExQyITMVIjE0QEE1YBYkUCP/2gAIAQEAAQUC/wBGtea57mM9zGQxTInn/pRg+bjS80mlovXtlMMWE26tMtvMndnz8bYyu7LlN4PBbNQmVtFo/gWtFYNtkhZO/VyPECuC3CRMpepI6Z+mMbZME38Qj5/8iwXiBe2LtAZjrYaAvBd+tXP+RZXxFXAblMs1tFo62a8r8FrcidlrbADLGzZNn99HOOHKcHewZW3RKYo8Bruz9I2G9rTGDlZsOliTTVu3y2pejDAMHAkuGyG9yJi0cNjsBI0dfO7IAkNNNI7bPwBvD6l0OR+W+t3dh5S0XrxMWgR7DdkNk/IOscNkaFzL6R2uHAZfFWTKW1m3G3PU18OFPn1uuiUq4+ZroFS5bA0x74PSrxlNerTKipXjMROWAK2W16lprHKva/TNxtJbkIrmIlohUilKjrwn647plmMcWKmXQrHWUzavVRXKSxCavS+pUQ6Cpxe14HIfSIibS7KVCcL2ilNnsLvE1yBXiJa9dOONqxaux0dLRaJrbR7OWepr7fCvy6tntIDlpm1uAh3LdPTVjB0qOvZaYosL8QY9yi4NunY8SO+Woh3MTWojRD1XHS/CfpGya9454eQ9S3U2uNsDIbLn8POeutniVznZBWzjQBUALq3uu9wMZLDuixVtXoa+3wr8unb7HlPFFMjl1VhKj7TjQ1RtMEaLmkVsQ3XaYrVk0sseGVPy9nxAf0dcEcmMKlRD6/E635dKb0dna0UqcsnP4dV9FLsbhb2r/hY35uhv7fCvy6Nw96NeXFFWzZwCoAXae2tBYUly3xJWzZgjqEe3dlUSbNWgdO8J6Wrn9FBQBXs+Kr/n8OD8+y6r2rSDbVIWbPcLsq+byzuS+XURHmmlYpXseKRcw6Unp7Tob+3wr8uLrFVQWtN7cOWau6gwdi960hjbgHjTp2eKq92SqL0WCyai4mDWObVsys10+Jv8bT6k7B9moAyjgG88UfvvCv7jCFGLCbhGmF8QijC75q2F2DZc+chQbLgtE5fB+HaZ4ij09SjHN7s+JI56tCeT/Q19vhX5cduz67XSJgwsHt2a5Xd2yN2PPxoOTux5bd2wu0avhL2JPFNQjZFVxrCvaKV2TkuFzRLeqfp8R182r58piecde8/y3hT4+Ka/9tRsyklebLnykSDZcFoWrYPw8PBaZIeDEMfR4jr5tWtb02ez4mty12tjzbHoa+3wr8uG0Y9up/BQ1lz4IdRUvatK7N+W7YIdilVBVcG2f9sSs844uh9wn/WjY9xr+vef5bwp8fFIua68Uk49QjTBiGKOxsA+uj/SJoZU7Hig3mP4cF6my6Gvt8K/Lhvi+drvrKmZlHWjXnDmoAexeu5bhpEvSowaoAnLY5tIf1UujerSs/pnfZNx9Y6t5/lvCnxdBDKt6TW2kd92p2tuv7bYeGm/JfrYLQAWC2Ofw2tIk+hr7fCvyyfpBieqburosMYtqBUytYrGP7EauMsEZJw1CPub5um/XNnh6tucdGxTo6sUdxE0+29rFLVvTp3NottPCnxzxGhysowRQ6DgnQ9N7RSux3BSta5yjy+blH3q0TNbafZw5XpvatK7jYy6TVJS81Eco6Gvt8K/LNnf00Iznxn6Zzjo55Rc18FrGr4HSxgElw8WGQrw7tim6NenZwo6VHTcu+iPggv7dKvTtNcN4bSxlCKtnVlfxDlN2jbLbpGMN4gDEObRprBDuW+lQsiHJjnG21FgSEtxXT3/ANBbNMmQcU4R1YeM71YcPPndnXa8r11w0XFw3Wq9fJ81Lo70ooDtUi5DAZwjiw8a3qw4deO7KCRnSKLDUD0tfb4V+Wb63LX8Z+uVpEDlcNslFbPYK5Ci8ZWla9LOwXXxncFJlpm1uKKl3CrhouLYOVTFe1r3zVL+4cn6QOecdJRUNRrw/S0m0zo8sm1XITatgtQ6TF/D31WWCqPof04GpZ07gcvS1M/JleWA1zZ8T0FazSsUr0P68DsM6NoWFEQWfkyvLAINnxPQREjpUdOpr7fCvyzxFP8A1eII8x+ojIR4XcK0w27JOHcYP1IJXcuANADdaooJg12DcNOt7dTdm9FBSf8A4fw5jnnoiyta17chFOVpWvaa+3wr8s8RftuirJ65DrUZ+IN5LzWWaYtkzM5yjsa7V2NlK1pV1sagmTkZLw06vuWc3TPrtJ/Y7BSjFWNipM1mLR/4DX2+Fflm/jmh/AAEh7oaqi85sNhRSDFucnAdLEuktVVfZte1V/oH0rHXsGoUAYtzExJu6lwkqUfRaYrBdktTLbiufjFsjcRg9otfK2reOm9q0gmzWpltxTPxicjcTlNwOcC8uXstfb4V+Wbevn13epW17J6e1sCEYaTPKNhtuWTMzPHSpenXNm17poFfOcWR1+ILTLXHw/bmpw/THNpFZKUhp6REuGyOzi88GGBr0Y2hiZe1rz1LOGXxJujVepr7fCvywlfPSazS3bXVOxi2kwABgrjj4VcdeK306dD175vXPJXNXXzOC7HiAM9GnBIU8meUbF73M9nUu8pzYL+5W7NLWHdNmrIelr7fCvy4bdQlXJ+mc46OcZzygDEwWqbvgtHGA1yoeLToFYb25i5/fRrUZcJSsUrsW4UBe03vmnHyGPsEpUlG9QSkwi1Mo6nyW4bpnq9IvL++hIsmWzbA9FrI+s1TZtkoNRhB3F06c3pt9LX2+FflxmInJXDOSmtOfh6mQirGQqCMrSlegpaCqxuF6Yxs2TdeuRs5cQ6ioyei4mj3ZNlazay1IpWndvaKUveSX4pK2aIusIFcMAZqvp2VviyR2MV1wQcdgv7hZTVfQYqCjhaItG1TgE8a28lonnHQ19vhX5cZvWJ58eeWMKuX2ClMvuVowm8nDbJsuT+aevW62zWUpFKsGouJ5q7ZuGrDzsGuR3dxfyo9CAfQV4nFUwlNcIHVM8ou6tTJ2q0Z+LL5+LL43sFzrcZ/RWeavQ19vhX5cdul7oEZ5rZ5rcOUduPrOu1PBtkaonGiNk4CpJSLCilaR3t7+140jmTtObXlJSkNPZR/Z9DX2+Ffl0bpL07d1RMzWIoCUjH9gJSDmIwTigv6VRVyO9vI5p8efKaWi1exumZ59FaXtnolyRFiOhH9n0Nfb4V+XRasWrs0ZUt2lwFYsppqUyIiIvaKVe3HPP1niir5ZDTKx33h+sp0aZnzD47Rv0BK7AwMVeCxxPf1D8dSmP0eDv7ToR/Z9DX2+Ffl0kpF67HXWXnrXSYYxXTCplKVpXHNqEGNNGanj/aanlwQ8pX+C+D27XGJmJX216x+LL4xtpmL2te3BbYnDixqsB/vjqSwRLhuG48vQj+z6Gvt8K/LqmMe1UWy9LDvkfmkOuaLgdJOLorr8L3rSrG5DTGnTtdIRXLKqsDwY8pXI/g7Bb3QLRNbdlcNmDUrFKbAXoucR3sO9dqxEGfZLHSj+z6Gvt8K/LrmMZWGeo0Ex4Oo6xhTiFhtyvTDbli+FJctugYrkwKMYMWDHla/xH0as4Udw36wiuciKlVR5s1Pcj/SekdLFIenpn4o/s+hr7fCvy7HLJrk05Y0pJsvqyRNk2Iz25s9Eue3NlUzTlNfOCSHXKiyosrTIj+MUVDVY1GETYHk/TOcZ+uDWOTF9TacCEYacXERs4bXsim0TXOcZH5sBr2CymoNWra55a9qxntWM9qxicTVXoa+HCnz7XLJrk0yRZIs9HPRz0cgWQPIpkV/lzETnpUyKxHZmOeelTIiI7jFvNfgtXnfu8s5Z5c8ueXOX/rGNy4jHN8pWK1/0ew/Nnt6Z7euQGkdH//EACkRAAECBgICAQQDAQAAAAAAAAEAAgMEEBESMSAhMkBREzBBUBQiQlL/2gAIAQMBAT8B/Rsw/wBL6DVEhFnIuWSyKuVkVl7cE3ani7bcLouoGrEcCQO1DmGxDYezL+Kdqr3hguUHh/YoBbi94YLlR5gxOhpSkHI5n2ZfxR1Wai5usgSNKHNPbtNnWHaEzD+V/Ih/KM3DCfOk+Kc4u7KgS5idnS6aLBDfsS/ijqkw/Bl/sNaXdBQZS3b10KNCB9eX8UdUmYZidBGA8fhYkbqGk6TZeI78Jkl/0UyG1mkXUaE4pvry/inao6jVg34WDfhaV1kr0ARNqDoevL+Kdqjq35BqJo0Jx4x5gQuvymTvf9h6Mv4o6o7mGq1kXV0tnjMg/UN6QQQwX9CX8UdUIusFisVisVpZK9QLIm6bxiQWxNpkqxpvxt9kVl/FHVSbLJZrJX4AXQFkTQD15fxR1Ui/MNWkTejR6VuUv4p2uBF0Ralliugi6ob7Mv4p2uZKuaWWKt7Uv4p2v0rWlxsE1uIso0SwsP0uZGkXu+a//8QALBEAAQMCBAUEAgMBAAAAAAAAAQACAwQREBIgMSEyQEFRExQiUlBhMDNCcf/aAAgBAgEBPwH8HKJALtKFVIoZxJ/3UyBzkKUd16DPC9FnhGnYnUxGyII36qpbleo3ZXA6GtLjYKOAMRNk+pA5U6d5WYnEk90HA9TV86bvjsocmX4IkAXKllL9JNk510xt+Kym2bqKr+xN3xeboEjiEah7hYr1As4WYLOEZPGDW3UUWcqSwZx6ir503fBxsP4Ws8qOIvTWhosFPJnOUKWLKwHp6vnTd8BAZRcJ1NI3siCN9AaUI/Ka3wo6bu5AW4BTy5fiFTx/6KqHWbbp6vnTd8KbkwquysrKybC89k2l+yaxrdsJpsvAbqKIyG5wkPqPsEemq+dN3wpuTAgFZG+Fkb40E2UlR2aooS/iUBbgFPJlFlTM/wBI76HPshJ56Gr503fClPAjUTbdPqWjZF75Co6e3F2D3hguVxlej8GaXb4N26Cr503fCOQsN17r9L3Q8L3Q8I1XgJ1Q8qz3ptN9k1gbtg5waLlSSGQqGLIFUusLaS26DANN9N9dXzpu+McIkF7r2v7Xtf2hTNQhYO2h8gZunvdIVDDk4ndE24qR+d1+gtoONXzpu+Mb8humuDhcaSbKSp+qDXSlRxBmE8t/iOivicavnTd9EchYUyQP2wdK0d06q+q+cqZTfZAAcAiQN1LPfg3pjjV86bvpBsi4ndMaw7lNjiCzNCMrB3Tqn6pzy7fpzjVf2Ju4/CvkDBcp7s7rlU0JJzH8L6bXcSEIWeMf/8QAQhAAAgADAgoGCAMHBQEAAAAAAQIAAxEhMQQQEiAiIzJBUXETMFJhgZEzQmJykqHB0UCCsRQkNENgouFQY3ODspP/2gAIAQEABj8C/obYMbJjZMW2RZ/RVVvx2eUVHWayYq8zGiWf3RGhIPi0WSpfnHo5XzjSkp4GNOS45Wx6XJPBrIqpBHd+BqxAHfBBnqTwW2LFnH8sWpOH5Y9NkH2xSKoysO451sUablNwS2NDB5h5mkfwp+ONbLmy/nGomq/I9Rr5qJzMatJkzwpFmCn440sGccmrFOk6M+2KRVSCO7qK8cdNx6oqlZrezd5xtdGvBPvFTaeObfFx8o2W8orLZpZ7rIpPpNHEWGNW+l2Tf1tsFMDAdu2dn/MZU+Yznvu8oyZSM54KKxZg7D3iBH8OfBhGulTE94RlSXZDxWAmHD/sX6wCDUHHp6Uw7KC8xrWonYW6MmRLZz7Ii0S05tG3J8zFTJyx7BrFRVXHgRGRhuku6YLxzgMpBU3EZjTJrBUW8mMjBKypfa9Y/aKm1jv3mNGQQOL2RfJHjFgltyaNfKeXzEVwdynduPhAlzNXP4bjyz/HGvPqNM1fcgvMUc5KdhczJlIznuEa1lljzMabTH8aRoyE8RWNFFHhjtEaUtD4RUyErxFkAW+PWGVJNMG/9/4gS5Kl3O4QGws9K/ZGzGSihRwAx2wWljoZnFLvKOjninAi5uUa9jpWrL7GLK2pjWIvGGmTWyna8mBNw2oG6X94CS1CqNwzNatH3Ot4jImWqdlx60CTNP7ux+A/bGWY0UWkx2ZC7K/UxRNGWu0/CNUlX7bWnMowBB3GC+BaD9jcftBVgVZTaN4joMIOuAsPbGd44xzzzKwehm723LBZiWY3k48iUpZuAjKws5R7AujJRQo4AdUXmGzhxjpsr8m6kVWxxevDqRgso2tbM5cIWXKWrtYBGStsw7T8c8ZahqGoqLjiqYeb6lyco/apo0R6Mce/PaVNFh+UPJm7S/OOhmGsyVZzGIYIhs2pn0ELKWwXs3AQsuUoVFuGeZ8ldel/tCFmSjR1tBhJy+teOBzfHGOecZGDm313G7uGZRNFBtPGRKWnE7z1eVMNu5d5jLmeA4YuntCJ8+oJNwtiZOPrmsNhT3nRTl1TgbUzQEJKW9zkwqIKKooOol4St40G+kSTufQPjBY3C2Jk5r3NY6UjTm6Xhu6l1XYfTWJ0g++Prm+OMc83opR1rb+yMzIWxRtNwhZcsUUdWUwejvx3CC8xspjvxZC2KNpuEKiCiiFEunStdXhAmJ4jgc6eReRk+cWRKlD1Vp1WDJzaMo/y0Jz6uwUd8Wz1J4LbEyRLlzDlDaNlIDdk1icy+stB4wF4mkBRcLOpkTey2T5xI9qq5vjjHPMaY3gOJgs5qxtOYJcmapbfWwk9TV2AHfGrrNbuuijtROyt2PIl+J4QEl+J4w0yYaAQ02ZtN8oF5R9Fhnf9iwnvD9epaXNm0dbxkmG/Z3ysm+yJX/H9Ywg+yMWsmKnM0j02V7orGqkzG52Rq1ly/nGnhEzkLI3ufONDB5lO+z9Y0+jl8zWNdPdu5RSFQXBlEYMP9xf16pu5l/WMG/5FzfHGOeYQDoS7Bnaua691Y0sh/CkaUjyaLZMyPRzYskvGjIHi0WMqe6IrMZmPecyiWKL24RkSx48YLMaKLzFlkpdkfXEZzbMu7nnMeywPzgHgawCOowjw/SMK5rEhuKEfOHMggFrDUVjWYRMpwBp+kdpvMxoYPMpxNkaxpcv5xrMIduQpHocs+2axq0VeQpmN7LA/OJL8HU/PqgO04jBh/uDN8cY542I220V/BZc+qS+G8wEljJUboLMQFG8xkJUSB/diWXL2mhZaXD5xKRL65T8oqLsydK7SkRb4xLqdNNBuowjw/SMK5rEmaPUah8YlidXoy1GpHoA3vWxq0VOQp1M6VvZTSO+JU0esvUypI9QZRjK3S1JzfHGOeNZY/lj5/gNUtnaN0B31k3jwxF5rZKxTZki5fvj6eaNY1w4CGmTNlYeY+0xgKdqXo5rNTVzdJfrFXOpex+7v6jCPD9IwrmsTJJ9YUhkmCjCwiAGOul2N9+rmLTRbTWGwV7m0k+o6h5sw0RRUw819pzXlBmtfONfDN8cY54qw8w+sa9doJRe01kVnHpTw3RRRQYskac3sj6xlzjXgNwx9LM9Cp+I4uiQ6uWfM4p7+pYPHNMtrDercDDS5q5LrYRAk4TUyPVbs/wCIDIQym4jOnlSCKi7lGFc1xHDJQs/mD6wJ0q8buIjLlG31l3rnFnICi8mFOCtkypZ0fb590dIlhuZeBxaPpktT7QCKqynxBjo5tFwgf3d4zizkKovJjIl2YOps9rvgIa9Etrn6RQXZvjjHPFPbfk5ttkX5uhJmH8sbAQe0Y100nuWyNCUteJtOOs5wvdGTIrKTj6xzKXSxtN9ICIMlRcI6GU2ubh6oxonrUqeed2Zw2XjIwhMk7juMaiYVHZvHlH7zIPNDFsxl95THpq8lMamVMc99kUZ+jTspAlyULt2Vh+kasyZaQLhioboM3BVLSd6C9f8AECZJco3FYC4ZL/On2jRwiX4mkWTU+KNPCJQ/NGpypzd1g841zUTsLdGjoyvWmfaFlylyUXGZ+DDXesvb/wAxQ5SOp5EQEwpelXtDaiyeqng9kWTZZ/NGnPlD80ams5u6weca5tDci3RSUKJ60w3CBKkigHzzvHGOeI97AZlIVaXCkWypZ/LHoJfwx6CX5RZJl/DGioGbRnq3ZW0xSQvRDibTBZiWY7zmZKWKNpuECXKFFEVNrnZXjBdzVjaTiWuwmk0W3Z5SagdTuMVwWYZfstaIsliYPYaLcGnfDFmDTvhj0OQPbaP3mdUcJf3jIkIFH65pdNTN4rv5iNFBNXin2ikxGX3hSPVjRFeUaEhgOL6IjKwt+k9hbBAVAFUXAZusFHFzrfFZWTOXyMUmynT3lj1Y0flGrkPTi2iIysMmZXsJd5wElqFUXAZ/jjXnilj28yUOLj9c/WTUXmY0S0z3RGplKve1saya1OAsGdZoyhe/2gS5S5KiMt/AcYMyadI/LGMoUmPpND0Ok+iIl+6P0/CWx6NPhjRAHLq7ZaeUaKgch1XjjHPFK9/6ZujPmj80fxEyP4hvlH8Q8aU+b8UWsx5nqQ+EgpK7O9oCoAFG4RlPf6q7zBmTTbuHDHlN6OXaeeIquxL0Rz3xL90dTWY4Ud8U6dYqpqP9B8cY54q8HH4HIkqWb9IEyaekm/IYskac7cv3gzJrZTHGqIKs1ghZa+J4mCw2zYvPEo7uoy72NiiMua2U2KqWpvSFdDotbm1Y0EbeWfZtjRkseZj0A+KNKQfBo0iU94RVSCOIzquwUd8beV7orGjKc+MWSP7otkf3Rpy3X5xRZgrwNnU+OMc8U6m4V6/JRSzcBGVhRyR2FvjIlKFXgIqboMvBDU75n2gliSTeTmdPNGsbZHZGIkHVrYsS14sOplruC1zGXstmFMGox7Zuis1y/POypTFT3RkYTRW3NuOPKmtTh3xSTq18zFZjFj35+g1V7LXRo2OL1z/HGOeJlNxFIKG9TTrNTLJHG4RXCZn5U+8ZMlAo7sVHNX7K3xRtGX2BmidNGpW4do4v2eWdJtruGIHsivUy54uGicwZW05ysVTdGRLqJP8A66oYPNu9Q/TEyjbFq8+qDoaMLjAcWG4jgc7xxjnjd5ctmR7agb40gRzi/NsjQkzD+WLUVPeMa6ceSiKrLBbi1uPWvpdkXwRJ1S8d8d+bbUSVvPHugKooosAjKvc2KOMFnNWNpOIv2j1JRxVTeIrg+mvA3xToGgTMJIJFyC7H+zpzf7Z3opnwmKG/NR3BDG/FlDZmW+OKgtPdFkl/GyPQ/MRrUZOYzQvqzLM7xxjnmWiLZUv4YtkS/hj+Hl+Ufw8v4Y9DL+GNFQOQzKzHVR3mNVWae66Nro14J98+2oki9uPKAktQqi4CDMmmgHzgzJl+4cMQVbzZAUXCzrmY3AVhna9jXMoLEG00UloB378VJqBo4yjccVQuSnaaKkdI/FsbKNsWrzgNhXwCKS0VeQx0IqI6SUNWbxwOYrj1TWK5vjjHPMoWAObpTEHjFs9PC2NEO/IRqpHxGPSZA9gUirEk8T1AmTNGT82gKgoouEGZNNFEZbWKNleGPpTusHXv7Wjmou+888xpbXGAzayZxOdbGlOSL2P5Y/mfDH8z4YmSxl1Is0c2UfZGb44xzzMpRrk2e/uiyNpvONpvPFd1YAtJ3CBMwscpf3xZc02bhxjKmWAbK8MYRbzCqtw69PfzEHtDqymDUPtm6KzXZufVSfcGb44xzzThEoaB2xwPHrtUuh2zdGjpTN7nFk7U3cgjpJzZTfpmaW2b/wAADwcZgPC2AwuNvU/s6Hvf7ZuijnkI9FM+GKmU9PdzZPuDN8cY55pBFQYykqZJu9nu6vJkoW/SA2EnpD2RdFAKCCzkBRvMFME/+h+kVNpO85gd9rcOH4Gam+lmb0DbS7PeMzIT0rXd3fFCekTg33igOS/ZbHMfi2Ys+YMpmuruxzvcObJ9wZvjjHPOKsAVN4MF5ILSfmvUaEsgdprBFcIPSNwuEZKKFXgMRWXrZnAXCNc9R2RdmUEBpg0uHD8Gy+obVzAQaEbxFJ65ftC+P5nwxTB0p7TQWc5TG8nHRj0icDf5wJiAgHjB55iAHSSwjGcHlm31z9M2T7gzfHGOfUF8Gorb03GMmYpVuBxUW090WSskcXsjXzfBIrLljK7RtOLKdgo4mCJIM1vIRrGovZW7N0BZxiy1uP4TJG2LVMFWFGF46oS0vN54CAq2AWRMG4nKGZlS2KtxEW9GfCKF8kezZnSfcGb44xz6nJmrX6RpSa97GsatVA7sWsmIvMxq8qYe4Rq1SWPMxWa7Oe/N0Fr3xWYcru3R3fhsoaM0b+POMiauS3UZEoVb9IoLXO02IFPSrd3wQRQjdnKiCrGJiD1TTMk+4M3xxjn1dlkemnLyaKqytzj0deUeifyj0T+UeiaNkDmY038o2anvt/FZM1Qw74rg7/laNKS3hbFtRzi+LLY0JL+VIrhD0HZWMmUoUZldmZ2hGxljikaQI5iL40QTyjYyBxaNG1jex3xOIkzCCx3R6CZ5R6CZ5R6CZ5RJDChCizNHPGvP/UbRGwvlFgA6m2NhfKLB1lOGOu4f0TRL8dl3GKD+iLWaN8b4urmf/8QAKxAAAQIDBgcBAQEBAQAAAAAAAQARITFRECBBYXGhMIGRscHR8OHxQGBQ/9oACAEBAAE/If8AhTko8TDK1EMxaghA5OP+KA6F32vaXGpDHEg7i8oI8xXNbqUOPNNIqT1I2EDMWM0Iw8/II2gAbBPes7FE/wDhJQFiTIyCdXtQ/bQ8ojsA+UfAiMCb5LPrT14gBMARkCLCfshmDaj9kI4sZflQohVgOyfmTROk+A7skidJp8B6sHdEXkM/ynsIyEHjIsAO9khc9yJOOBBgh32/EX4JgIpiA4SCj+APOPLsiH5gRN3KJiZE0JHH6lZt0ND4BlQPg7IA2chhy4pAhJgIkolIkZbT4FlVIoNJAs/ovsX1MGaBuSanypDtSgdZLMOa39TfJBQ5PIQywDggwNo5F5LMhmjXLYQ615phnTDjamSGvz77IgEC/FEAOYe0miLmRmIjuEyHMsLoMdUGmrkOCLgCCPIBHjVh7Hw6IndEmaPkKHvWwP3siBHnPpBtve6ONnEI85LONJ9ZBTg39bxfGE2iY2TgT2X0JDNOfQYda3MlIvdUxGnh/JAw4ZtbI3M18hbEQBNZIA6rcEEoaBBEBcOiiyTQcnPDJAEmACZ/BYnHP8ipX0qFTQZrHsJIwZZoUCsmQtAAwODgVFAMKLWQ7I5cvsO00cAQE5wftMLIAjVBnkETeU+O+oigJ8RlifuCkE+CwFzpdFzseaFGXrRh6HJOCmgfEx+Z2h3CuMAFj8h6/k7IyK4iiGQVKHMwjPP1cJoZiBwUy/MJnpVbJmlQkCDyhDCO+yP9vS9Fu3XyBslO9hUUGBDk2gZL/oaICMxMGpxQYFaIcJioEgmVAi9FpMIuV+rNLMx/HBK0onBhh5u2qfPT5UVclaifq/nNqswWECEYCJJRAxJljgPuaGB+eJi+w633y0s4lgRmmZHWNAwPMIx8SxMcE+LCE9jMY/D9ERIkgvp8Ag5AYF8UFBwHT1onvs1ygigO4C7L0W7deK14w+APZAABhK0liGIIDIVKhhMSJak8OaglTE+OUuQ2AJkowbHTTgFXYBI5Kae2FBhsgAdNewCZ5ntwinLHgYPPZ1BnFDJ0yeQVAOAJmicg+3dPQSDHtN2RjWCS0Cm4PSMB0ZAHitCWB558EIg3KQZjqmTxYsPbwuyNFu3XSQ+CIfDqCVsfEVSU1QQY8BwpLOA/m6I2misFMQUntM1uwCIm7giYJk9lC0eB50LxSRmbmbynZmCCiwFwjzmQa6D2gjkcxMPd/NAhMiBA982UFTwAALA1QIRMA8op0TEXSDymXwuuCAawWDLgiCiJCOQewnngReY9gXZGi3brkcgy6QE9cblTaaFNGg9RMeCwY5kmCBEdI9SfeTrmqpWA44zLIalByhMkyqV3ezNETSJKjAJnXEAx0IzvGw5oBjUGzgnSNIg2NENOJgRgz6qR+RIBVN7mwc4rLR0DSGBuxdS0wPkqHhqsTT3BHFbsiYJNBE0yxzEWpMAs0tk1nkwvdBcLHeg/iEckeFHBVI4Kd67L0W7dcibc6OJukAzTO2ag6Fdyzmywkfiiwk0IPlfzB7WMupARsr8UTqAvzErM7T1ycNRxD2KCmwxKZVKD2FcmCdrprxzWNLwc5+h3UjdOC/hvKGSToLoUcAhxwNx219KhRBgugfpDbeCYBPoLKgpDF+DNNMcwW7prIbUn9zQZBFYgXsmp2GJPygLB8u4OSPjeV8pgcKtofSPhHDVOkfF2Xot261+bdQOPlCA/wGCOAGHk9YQuMkCCzRyRgFTqAqqcsrAaOZh7Qt4M6sSin4Lfg8/CAIjkHBuCoOa4JiWCxkCno6oJbNwNx219KhRPFmD2AifAMQmIBggojhiZ702B2XwTVSLVhuomGHYVgnROuO/BCXTNcwGzpkbv0wHm7K0W7dbgmcOr87/4G0/jgBzxUHAkYhoFg+wMTjkM1BAmPVz9LDCckSEQxvtyjbMB1iBoigwCeE5X6YbXQmY4bPB1jzQIAD4nzBEAEFwcb+47K+lQqA6DgaHA9U5k5piEKAwB1pzd+G3bD8kz3dBK4rmfwevAisiFirkNgQF2EEUGXk3ZWi3brCBCkEadD8mG3FJAmmh02S9pvO5LpQGIGAAErHuRwNLwUb0JGyLYS4IUPAsmmjCPuFgzmhr8KKFyEu+VJx43f0kQiAhMOU17EFODkODeY3ocqAvpUNhHAJgLCnujmiUSlSKkiIFmUN4HlXIYAIhd6zKh2c0MiIS+5wsHIh01a8yPG/ARALyoNBiMA+IXgvQchgFFW7VnVlQIAEkqYaj2QhAAAMALsvRbt1hRGIBqYKAACw4T5p0g6gsha4qEAMi+kVGwNQSZ3IY+EIOOWPcgIhGFuG2OzSxHQJwHmX8FU1ic7WreXuzNDdhsDBPzAMT1GqEIBGAT2jvaJRuLuABYA2NQnADGppn4pzz4SioBgADi+HQoYhQOBfXgtXaaPtPOcdn1MysMhQfME3EQMEcHxsAQDlAg4ov5xiNGvYgo7I08sxkmSB+rr6Jjijg83QJydAQJ+Q0fClN3Hh1IoSldalAzSExBDSooNYBgB3tg3GkCALBEwLl9wURALKDXA7IIHRmd0JcZkCCPqoomFPbuvDqXQC8EPs6qDuFgP6nLqsayjiVSa3u2t26xj/2n8XAZUYI8QIBEFv2AiZ9MgD1VKXyLbyDXXYMfyYIc0+RwG6mswM5PO5Ethno1XdunM5qlb1npFVnuMbG+L/jDr2RghgCaEEguDEGovTqFBcIkypdLHunNiY+AspNuc9lOJzhMfMAGwipzJJn5lWB7T1HG7GgYkUPpqipIFix6o90ZJGJgvdZAUOUv2RsPT6DHZCsG/RMzsg1QYBgLo2+FgB9jIp4Lku2Ybos6swI19idMAJyOjojmFuFBLCKg5pjsh+HYJgL8vRbtlhM4PY3MnTsvj5NRUAOfMSoXmK7oE5A4/sCAAEA12fBH5ZuyFywSJY5kOZ0Q9hgACQUFhIAJMk5+gSg6Jltb9PZ04nD/ABgBgBGaJjE/IgnRzcIhwxUQKOYrs9nCl6LdusGN9iuOxcEg1GC7mFSbnEFfxfRF+FkAYoagj764lAEgL5IAcovNAJNSg3QWqMIACeW5wBNTpA4AkNBaygc4zMA82PUcZzMTwoA/bIS4GYtjZMg7nBBIBJER/wDBl6Ldus1xfHn/AA1GU0tRwTFglCPkPNk+AIJlnQEaliqCgGAtc7ZhRmiI9YKyKehEkyYaockAbKS+csBTnEoiMJicNKCwFMSY0D6KdaAYbpSACZJZF2BUB7pIMw6oQvo+l4xCoQX5HVDJ7kRxezTATKVGedukhzDMwCOGNn+V6R+VsTMhMBzzW/Bl6LdusOGDnYl+OBlbBcpvzWRanDkhMPYCAQgARJKhikMOB5ayRmjOQ5Nspo8PgifDlEsHMlGO/fPNffh1EpL9ErDMn8uFNSKBoWNpIAkwCCgFAyGlU8FUKA5SvdwHPBQQ8IB3KWw8BgEyWQRwgFeb4CzHOb3iAQxEESDo872CdtU5j2L8rRbt1gJqRc1PVB8i3DJYOUQ1d7hRHCA0OcnZobY34R8loy+de10kZCNgeLMB25g8nnZTIhdkEEJX3UQDTpaSya+xBijy2sAcgARJOCMQ4PLny4RjRygXDN4s9QCIaN44L5vvfJkZK0W7daIrQMotiQk4jkZZTqnztzAgBMTnJbdZeUysNfCE0BLOS7o6AVn97YQKIh8kxp/UfpGJEkki5JmbpgXhDxUIf4VhIBE7RFPF6RJh7jE2PmItDQfqCCF8bkViYonLnzB7TNO5sB3T3SPEBrW086Yc7XTxAxOCBnBiqDBgRQYG4S0XZouh/UgIaNbHEGFyxDzY5gNAHKwnaO5BncdDI8zplb3SHTAdqJXpei3brgRgEZqYLUF41kUGTdEpEPlXbXLmbsmlBQ5f1FPYHLR8uyxJxMycbwqQLesgJBshveUVBmi7xQcgNBYBRzsQzYYBBDiwwyi5KJG887h+fpTIZoGKBTFqbGtLMRGhTzDmx8MiiQIlNnJQOQmUxZFuwwtax2J8yE5Oa0BqU1A6FpSESYIdBbQ7dmyuGOGIB5FCGEiHu9tbt1zE6jEoAZEG0gJkBboAooz/ADeCfXrR7okQAa+tOg0ncTRnNjXPAiR+1qDNC6iMCAC78mZDNRUwz/17XOR1OJTAQw4rHEyHUbhLAlDxmH6lcA642/VJiYcBoLwHCAAxKOs4oC/ZSrTEstGWgZUKdiwuREMlnV2rsvRbt1wTTLpyMUkciNCUMDr1/ToxmSdS6ynDAgJKYAcnkghiJm5AeWkkAwYSRC0wEyoFluTL926shQVQqGGwTYQ4pwcCHY3BGJEG44RgHKayxAxOQY6rTDSh0khCXAMivmUuy9Fu3XZ+H8SR4x8Fh0eyqnKDmZOlBYUYPIanAIxcHQKAWzLCJMAAnUh2WSbCFuNmhPHm4GTiHQpDqA4LYwDQMaXBgHKku5pX96igCESSVwyK+ZS7L0W7ddEmCYg4hRWHFVVw3GnE4NTJGgejD7Q2ECQGCDRRyRgEaUiRB2eSiSQhIckck1e4QD+l9bFscc4SZ+oRCBcA3BvbfI0uBMZw8hGtp4kRojTybHlW05/GP3K4yDHDIPu35lEJC0yK+ZS7L0W7deBbRogFUmhEfaM75IE0eH2WqggPpf6lCYQkBgESwcyRjUD1CnDEXEIeVwAkAEkyAxTh0nGD9KVBMIBv8DdBujUuEbFOCRBQn0p5hJBuTqIUEn0eSId1QsIdMGYnZ7KS8sCxRDAMwXe4CYQVwtixFIwHlcMivmUuy9Fu3cCPu3EkNKh2RoI5gax7AaQudlMmsf0jmLeV5PpHgxP6hsIgLMjBCsChHdT8OW3NVAACFxlZg5BA3iJn4opcEyg/whIwI4r6RdRrEw4VWc6gUPdmwZIzG3LJ/XuBwi+M0xALUkPKInLgPdNANK4ZFfMpdl6Ldu4Dib5ESOOgo4A7GIXlu0Cwe/LVAiA00OpTkKy+gsxYm7aDC6ZjbHVQTpR8dDAAAYMAghBAQDf4xrrRhhyIYkAwOOYOPAHKmpmKqctT8sPipOVREEgEMSERkbz5ZsB50QCIkFecrTIr5lLsrRbt3BLkMo5O8qhORJRqt0RsXch6qanqgohnZMAkuipmiE9kfakOcVLgstDCb/zZdPBED/FqiRgRjC2TjYdEyynVAjwIpmcg4ljdHABznqtBU3I/73rVd4c2miLH9JZTqhJMRoDrmZw9plNnn29AitygROLRjLCZSgUSwLXThVtC4snDKOoZQqWJsAgaIYwTFgB/qAQDqF/Hra8HBADADqouPpQlgDQcSGJd9pfmHismJqYmJllv/ViDPiNLSeBAEOA/4cqnlAWWd1rP61XzOKlK3//aAAwDAQACAAMAAAAQ8888888888888888888888888888888888+3TH88888yuf40fX8888888MA884UMw088wAsU888IR8889d4oNNcfTH8888I8c8McQc88s0gU8ssw88d0+8//AOB/PPPCH9ffPONPPPPPFPPPOBAPPPPHPPKXPvBbzCf+9FT3V+tPLFPPPOKEABDHPFPPPPJPPGcPBX//AP8A/wD/APpko8HvzzDzzyjhzzzzzyTzzzwDzznj5n7rHP73GM76TyZTywzjyDRBTTTBSjTjzCzzy3z5/wDhZpo7+f8A+KOCEvPDPHHPPHIJHPPPLNHPPPKfflfzvXfP/wDog56lJzzzx0zzzz3fHzzzjfXzzzyUz5f/AP8A/wD/ACm7Nd8jOQ888e/Ch3f/AL5LV/8A/wDP888o0+oJb9MOWmd/6B/g8888SU8f/l4738QGb/8A9vPDcPvICB7nPP8A/wBne4cU88888o//AHPDPPKzDb/1PPNXPPHF/wD/AP8A/pbXO0FPPPPPPKf/AN3zPW9+uQ/9TzzkX7zyZfzzSO174pDzzzzzzzxP++1+8D+/f/8AU889E+888K7ts10DAo888888888t8z/3H9333pzY88ry88888MIMEiw88888888888888c8888c88888GB788888888888888888888888888888888888++A+8//8QAIhEBAAICAQQDAQEAAAAAAAAAAQAREDEhIEFRsTBAcVCR/9oACAEDAQE/EP4aTQi5xEL7dQEX2yRAPeDf2nO+0Nl0IIjN8RHcAlGKgNtRonP2fbNn5nsfnPtwFaIfSvzEdEL2All19j2zd+ZWi8EVtTyqaCkXh9c3OCNRe22OYyLP2Htm78xbjfwIU2w/TijRFVtlBbL36/tm78wcJrHnQMqVNAZrKQzn/KB0anZIqtst5nYIeb+v7ZsxvgicxTYgGhANIkj4xTi/c1jB+ue2bMb4FNS3mW9AXwTvMM1FVtljc7U7dHCC4ZBUQRLM3Lh0XL6vbN2D36gXUV3ACdgwFvE4MOkJiEe1S4t9Axl9A10e2bvzAcMLwfmHnAEsh8Yp3gF1AEuQ230k0Z38wuAvCoGElSonS9s3fnQvzPxF9ot6EgBL+CBfBKDrfguXLi4M+2bvzNCoiPPSF8E8sUhcKeX4zCy48YDBMGfbNnQEJgNh54fDFXcC9Srl+JMDLwRMDLi4M+2bOmhlBENEYosH2h5wAfGkTxkLgRImKuJUphkTwX8bQQiH3L+IQHSqKOVn/8QAJxEBAAIBAwMEAgMBAAAAAAAAAQARMRAhQSBxsTBAUWGRoVCBwfH/2gAIAQIBAT8Q/gmfgCgneA07dTc6ohcrgcMz8bQq3cRoe6Ba5jCdOgq3dgC12mwC5yNRyHQUxFG6O17nwzH3hjRTczaWuOsEVrjpDcxdvEsWiZpt7jxTH3IY0tVHbKZcO6gmZbzPviUR2hVbYu9xGo4JbGHuPDMcJvHoArROWGdsaaE4UlMZM+38Mx9yGI9TEzVu28wqtTfEVxoOAxnwwCBRKXLP86F9r26/WYO8MQVbR7iUeID4gnYJhY5l+IbR0EzcQ/MANiPxmIKa9t4Zh7wxFejZEufQgGBADGoC1ol/linH5gECghVss3Fx2noDbNyBvWpXTUqV0+GY+8MS3qIi1U2HfKl+odPwwK0CfnQjBwdOfTBcCAHQnOh0J0eGYu8MShIHmDlh44SGBag292O7qF0dROx/6Jksspfn0lnFL0NtFrQMXQdFwb0dfDMfeGNKi3S//EPnA8qzeSDbbUq4rf6giABaMnWPQrRUDpeGYoaLW6tAC1ogG2+Xw3h/y6fXfQHpDQ0WtA30vDMfeGNbUYh/ylzLx8SK3zDKXDaKgtwvxvSHRLlabcw0S5UCul4Zh7wx0IrJm04Xm+WP9wBVgTOwZsI/b9QZeihFvQdLqDL6D/SC6oejfu7sxU5oLDY/hGJt0wrYYaf/xAArEAEAAQMDAwQDAAMBAQEAAAABEQAhMUFRYXGBkRAgobEwwfDR4fFAYFD/2gAIAQEAAT8Q/wDhZhZLRSDasfjNWJ+Ur+ErIm7HxQczXEbf/FAghumn+9HRHaPSWu5G3+1KDZyOjs/kSihLhe7TgO33wB81ED9hfAH7pi28l+q3Yf5vQjrpvkajROo/7GnbbYo8iPDQ1cwEPcp/8GRORAd2rFFUVntT5qf6sE+Q/FWrn4HxKkgEQXN1H2rRmMQ+R9ylAEqsB3qKZcuJ5bDulLtE5HzBQPhgvzVgSGPKGU/FQmd5BHqrO5+B1itpPoLuxUOEcCvMsfiviGB8FVgxxY7sxTcMk4Xz+dBgSR06Jb8BmQzdHqktsInR+FCKA1ml5s7DwFW6xLxUmp3zuX0oDsq3VTu3fYoSsB1ihWBXhKPlMKgII5Ofi9BSmbyXUwnDJWKPZeyfw3qDIJIPOZOST8ohBKGAOWhztQmXiQ3a2sy4pUpYhcIWO3W9Ega1gcOB8UEIjj6FlSIDGo/7UbN1/VPDvRDr3ZyFhwiU8BLhC9ngveQ4M0QKk+BwjqXz6trGVB1DifK7S2qeOaXv2D3w2DFLHLEG44HdKjqEwiOsUPNTRTMQfNUoFp3Hj8KOWFnTtJITizS1t9g/FhwJLyOaDciaFhEyeyTDT4D/ADsZWxWYQAw6JkHN6Ge74q15bnloo33BtzZuoQWNl48VnAuzp8Q+ShIRkPHjd2Zau3jMRCmzWctyE3KEGVmyus+W0yvtOfeTrgfPrEGn2UY94RiapHk25Hy2psVVuoXPPTY4oAAAAiA0449Vshw23qwHVCt0QzfDA8tKp27cOxLd6OKhunmVFBC/2BQAsAcFRQkdATQf8/bU5RpAw1GCPSiIKQISNVbrz+NyQCq2gpt0U7Matp4Mgl2rZ5joGo2CcoDF21K3yE6dnrbcFYybAXYt6qSAhCR60HccwBH+glzQMllEpbpuujgdyFLsw2ZpkXRlLjouvpLzFWwCZ1aynTKVr9NUtANAEAWC3UULkU26Lk7WSbulAqGDekC3sx8SIH6xxIpq5AgI0TR1u4kuPpkC5ZYcnJosIuPo086MAJV6BWZsZcMLG/HBgWLy0B4gaUdL4cAy6C6CpETwljiBx7CWtCAbI2oABSn6beSM3YMkalgvzYDCPcmRpXiFYgyxtkkMlmse+GtfxN6Me4CylFzsfTg12UwTJn8rfFowFoC3qF75ALG42E6sHe1ENeEQcWT4nDWHnwC7H4sT4ZgwGq/7bC1LUy4mJszfhDLtapKQM8/72P7t+FYp7cLahjKeFGKR4YFhZdgCriDtQGMgqGxNjgNOsr7kW0UJExJhN/QwApCADKtHBDfIsJDSQ9wbQQZEPIOUbDblOz3mJNMNnlaDJ/hSjeU2LKCHiBjRYp7EISl59VIU8Dr6FyEharrxaZih/wDkiUcvUxyNR02T8u6t1brd94sjFFIutyErtrZgAYrWbmoyibKVu2iSlZ+jJ8/gh/E3ox7X3ymPM+b0F8QAAY/tXX1hAhJJdjlxgtOQQMghVAd0/Bp+O7ROXOyDbdwU4ggRV5kN1gl14ACmJ+douQ9Gb6LGY/AZR4tAStTQiZk6J7E71OlaCzLfIR05fiROSyhBZnb5Uapw9Il6AL2oghR6CD6/AwgCjy3l2kUhwARsmpxHyqY8p2CV8FOjgqtx8ABUQJxGD/hZ/CG8tALJYOAPQSnew4IG0Xz/AAI/ib0Y9mTfM/e6rh3dqswGCXXfLu3mczf1EJDmJk0aS02JeGCGo78quqt38SglYOath9pZTlMuDuldg1x2DQ4Pu/olbAAZ5g6oQ80RcI9436s670qOVJBAkzCWO7OlT9u6LLK/zqI6+5KZjG4P4VQIJbBjVsfKFH+hvkCXuy/iQaxLlY+6GwIGdGDHZ95eQZOfLW7vIb4pREAgSEYFlCDEE036MRov9gqd1+df0KlIMlBbI7M1AWXZAgPH4QAWqXkMdIfNIbPUAeJ7jr70a1/E3ox6w8Dz2n+NAWn6tr1H4NAwFi3og5vVq8nmfPTXet9N8gJsGMRsQUI4T0PW3q/wMcOq1GHLAGTl2jkmr+RibgNWjNuKAEAAaRiu9bE8ks8jmCZXYlq0leQaar/iLVCTWDOkDVW1By0FkHDwHzK0vAZGSrBNixGy7EHtQAsAegr+qkFs90f8n4VnMMgALiGyUqAZB0kwJw050xPz/iKVbQF3n9LJ1mfuGm+bx+4j5p9LfbxlPwUCyZayu6HxSWfhH08bd2rlS5qu12fmhjGJP1dbtSWTbC6GPkpYBhBJfll3tTk34JVLS72Vqpp0A/r8RIZE8D9tRfP0EkfL74a1/E3owejYpJ8SZiz81jp7YSA3m4N96PAVkH3QDpQoAefyKPihY7f9b+1JjmaJZtVwf29stTUTouvgoEgTF7yP6oYR4VHpNjtHseBaOeoOBxO0u8StuyY101fjQgprcGYAXVo3NqWCmyW6YNDlfQU1aBLAuzyY3G1LBs0ezXc7gAqAk26UB+lLnDJuP4gJCIuScg0tL5zhKINhu3ZI80TmV+EQtxejHJWy32mpu0RA+WNub1dx1yLOwFNNlH3osvmg0DJ+uL9KtnuI+oPZqHN0gUFJs50P0L+IZGA5vJfxQXFueCUvH4EP6m9GD0QbvjU/UJ7KAALjVm/7dZ/8CBLEY/udIqaeZU8HPzPFmhkzBYA/yuXVmmHKMANVaZKvK2ScXwXV0C+tRp/OJDdcBL26VqpIspdeVvQ+wHZgsZYbugqG+UBsiWfY6CXtHd5ihBEC0wkiOzM2ohRWJScKjmSefxASAESIm0I+B3qXMzmVw6XTtPWjGSZsvMoqxPYi0dj8KFFCDMSfgKkbKMQ2L35kxvSgTgMQSD2CdvwmvSAOLInQu9IjJAxbHdYX292Cta/ub0Y9DcK3srHgf+BM2TC52OpwTzFLpkQT+I6svTFFa/2y6cBlWIL1l8Bt3pvPCQ5fRAVABZpNGMJdr32sLsQb1c6zjK4ANVYA5oDggRtEA7gAc5pku4jKm7e4OpQyeyUGRCw4450NpVIEdqCHGaCo8nahTGkDI/hCkF3O5idgD2pvOHa6GNiSR2hodq5smLO4DwT8aLU5GF5B0ijQjio0DHYI/IEN+r8EgOOAYDlbBu1Z3RMbMDsAB2mmYOONhE+s9BPdjata/ib0YpyQBV2KwfF4lZ8Py3hh1T4ppR8xWdwbuxHJUFNvIi7M91OKCTtjANj0HumwInhWjyug0sDquE6Mu11lekB6QtupTOx2r7ttH0MzoTLDbxh1XY9JBCBssEszwA71N7DkTohccdF4TUXrSEsoEO46ohG4l96tyEIn8mw56MGpsXDuJZ90bhmYKJJ4RE0bN/UguIQJmBAGwAbAHRqM0l9mN4tLCN0QeKHKIbC0weYcJj3LEQUCyq2CpF/aEsI5EpQV4cGAyWlAiDJhLiJkTkKsDJDYsuu0OzDpV7GQGPwE82ZvRZ7ebC/h0dPc5ExQJqrgqcEAkQOg3Og3dAsET14y8EcSdqC+oCADAGNvfDWv4m9GKVuB4pfLV2ECxwFC1K61AvZ5qximImJnUnJzhKEwr1KkcQ96epSeQ6sUiBPa40CbCAeWCl9niI8j9VEO9SjpKVOkUuGvZBvcaiMV0qw+pRmPYu9ihWFZxHUt2y8mK1RVUiypcrlebrr6ysbNt9j+BnMCAaRcAKNwuauuVsgg7ulAGgYpSIKxYNX+t1qBYkh1+obdqGziPaKVXX1DbtLtpkhqcGAbY9t6WGpU66W4NzKtfch5rZFTfFp5akSmw/oSkKpsxo4IpYZfKz8KDCSRcQ2/3gO1InIMyhu6cihzSNo/iEBkrsu+CCWiwlQJA5E2qZEBDu4Z4M7ExaqhAwmZGLF1JPNS4zaKTkrI5WT0Kg5tKlwkahh90n3UfViGXwM0Q8HIHqH0pYSoXJBhkyTeWYcBVi/tmE3/AOCN3QS/AGu7pyrldX1x60igDWcA3w4YyYQZgv8A2NJL3qIzQOA45Y1ldcvP9Mc6NvmYrkgC/wB0nHdT4maEuJkA8h9KTMyJJRqmZtZXwFCmYYEZDhwJh0F6A3fLd+dct+xAR7sXqfzN6MU2p/EV8ewsLRPeCoGXgEsRU9cNz9lLzI4D9VcjyFXnpv8AjoCBeP6VAeh6f98coLdyU/WJFhuh/DamjVPellHwexRkO+C6Jss00LuggINAapymqctQkGpW+47DK/tK31D0fogCMRY9IgVEhZh+YT0VJcAVOAKM8IA5Lj0uNGPbaPGe3Z1qTzuUfVITq8IpF4eIrzddr1KWvb9gU5F//wCxppRZhifk+FWDwzpbDc8A0YWrwym6XXKvtlbTBVt7AvJHJrDJb+EcPVT1wiBnspuvj0pmEnSV+1Gd1goDfU7JoeCuBZOaxxZuNRaTGDsBY9qw6BwXaccAlKh2WGCdST07KTwJcGO6QndKuOXmkINLBMeIL/FAQAktjmF8C0UiA3lwljg/wqHJRRdgPwwa/kb0YoGnmdn9mqdi62PHrf1UC6RSZ1ACfEzU1oKNHwHzQaZxJ+IPlrXSBJupl3WoEQJYACfZ0qfWsin/ADaFxq2rDYAXV1Vbq5lvS2q3Yt7D9uCjTBoXVJsF++elYABLripD1kmU/RA6zTxxpzNl3YKakoEPYIU7f+NIlaCRo4uGFX9VGjHQfp+IEAR0aV5WV+q+IY+n44b1rX8zcoxSOkBPsRAIMiQo+Z5zRAAbC/bWjD+CSrEUzJ+N+ikyFp9QqSL1u/lpBRLsF+vvYIAZlirNmKf2nHlxlMwowAaAYpZl8zgGwauDwJN5H+gpzlb7B6QDgN63xy0sb+hSjQGy4OiHY0JaZPo/htMLwQ8E0XBTEpHlIodvyuCdT/8AEh/U3oxTmDI91/8ACBbdaAOuIfLoOKKlFWw3Go8r7R6JwJKAjuf7HTcsmCkQaWMG2975fRSYu7XV4CV4vTA3zct/BsAUS4VmuVr0CV6c1Lfcg3U2l3Zv1qzmf7A/X4K5qyI6/ACvTmsUvksNh9Ebsstfuk4Nes7ShiDXWov08J32faEXpGAcrSoIYVw/jenIAxK/E0zWh6qTgAav2AU4QZrngk81iJ4bdz3LgXJx5akwmxAH8c0hNHPxctTrH+GKCbaf1mi0ctEPCNA3K03TiEvT8cNa/ib0YpwAoOl+lbRh/NhCE+LeDBzYNWlH8hN6HbRa7nSkYtJAvu7vLeixpIABu0SHj4RaF4OaVoaYF1XM/RYix6qBYAC9KNMhT3Xc01NiDeiZQBKtI5uRMIfaLOwUgQsbsB8QVYUw37T+CRKz9BJF8H2LesutgIDuvmj0ckAVWwU8srgtwM+bHWo25c8AMDxNcHtnreV26jB1mpdWLE2wc/J0tQzfT0JGahIS8ZF+tavEUDAG6vgBjembA57Ok4+D3IAOxJmh3OCMWw/QxxpS9Y1zPOfYd4/DjWv4m9GKHGeiAiiEgxd7j4n8YIgBdVxQKWtzh5xPaWkScOMeqv4B5rfs5A8lyvL6XssTCU3TA5YoK08olX15duOGtbBj2AguQZmXi+U2GauNMlzcNfoO5QAABiOhSkmn2qQ73+KiNtPwTyVRebL6Sp3PUAqgBLUpbhkIgB5gTszWGgnKpQAyq4peAX1I11cTXLoGwGCPwIJDCRczP+qdeqeut7bd229I1jdXTQ6JJ3pTlK8jZRp1kxv+FZkMNOORwmEtRPwuqQydNR1E/Dj+JvRj0OtJNigMFsDzLSYDWR4+YoXCzsKA4Hkaml3TzSGS6oVDh2lKvSo2FdQHmAHelkx0ah3fsoECVxk7yfisLFE8OB2CgAAAPRJChPhwXjlgoAeyghuuOyXkpMnKdUdVbrzd9rdwy0ckviXTGcBTiDALAVOpqlHKxeGX/ZS7R5xPogAMBYt6SfaY7/SS1GbbVh72RcJkDQxXuD4Ythyw9c0aLVpczrSIT15BhbkOkAJrQQegoJBagJnuRLxG/tRBZxC69Au1KL2v8VTYCyb4G549hCU6BPCMjO+GoPgU5hhA6MSOz6W6jYcBH6ocvoBu9pniL0aMtFx9gfipyFEwx4nNDpMsoHpgvf2hVHCtolfXJ3NvwQ1r+JvRj0a4kkJp9WeX+qWlL0/1Scz9FXDuaAsVt/hoWOKD6eyKP6A/NCu/gj6/qGnQXwrByvpSLpV5RKt1yvN33QVHFZU5tXdMdagKECAKFpZBlGA1W1KSuDlLt8UsSvEBSZABN1j6l6UY4hnYtPfPWocPxvojIodgS0zisv04AgOCPYhWIxTBxJaXg5sUCsIUFdVLvoiiuB/cA8lDHjl0p29dRi/XICgASq4pRNoY1B/gsc0ScBMRh8P259YDG6umAnZJXWnJVJIUhg8u4QTvVm4xBSjePUJ/wME5GjPR+w2HYtsDAWT2LSXk4Qf0lXBzB4fbj9T+JvRj0aMMJAopiYdKLkjhmpqaLkjloHH7b7aWIbJXiVFgriUveNR3lZjsP3UoF9JZ1T3CU8VnJmeW/vdZSIntUrHskWA/jkmN6Dx4mAaBQ9R7SpwGq0KjZcRIDldFxdMY6+ij7ybqjwGB3moLpUH5Uut1bE/A+y0ixLBr/uo/mMtw+MdD2GWTXDoORh7U+RvMo3wneXn3MCNKkBUX7m/iVJpy/wC+Ff8AUf5r/r/80co9GAN0vUKvHqRbCqnLK+8fdDf0/ib0YPWK3FITuHOmzFOwEmgjxh0jegRD6HHzSmX63/mp/O2Xmrsk+8FAAAfEfil64Ql0BdaAl+XTYY2Xg1miIQBAFIMC1w7Bav1lgo6o9kyTzrGBbcc+mcsvCQs9H22pisBN5DXrdXmiAoQflUDqXb2cR0unUS/z+JCIAXWpA9oVwzi4XR1puhlcHOxsKAAAHSPwfAr+rs98Na/ib0YPVpbexDUSz5Nm+rH5cPDWZ+z6STlKkXBAJ3j6B3n0mFPJF5YcXyOg0piyMnaIPLOd/UEBUAEqugaukUoAxrGYmC6m+i1DyXqMdPytMOZDoj9h7EmEkcyH9UjUpO4kn3+GZ9A6hDqbOU2g1ZDQD+09UIgBqpYogciETyENfxv6oUWwSAaqkebVm459fgV/V2e+E1/E3ox7GBAPkTIlETXCksmTbZ7Oi/igNNht8K+XhogqvBK5174NyiWGA4AaAUmRQgG6tooMy83J3P8ABw5qe/xGpJXXnPqoErY7/wDWacuIx4Oro00OcRgpUQcUEH5s4a/iMlEIWSf9ewoMSpb7Zz9I59g4Vwb9lfRu9GhXgRekHI+ZKnWSJQX6DpPb1kNk7gGDtA9iLLuRk2QxLMt7gRqQFsen9nfXxPX4Ff1dn4If1N6Me1OwiIOyU81MpPAde6QzvQyCIiWhmTfk90QoBYL5duvFS12LKBuTd2HqVqQdIL0PkY4odEwGDgLUCIA1aXMK2XePsS1LEEE7HUk5VdT2MhYBKrpq1CNPhK/TywYzerqV4y1HCNqIf+BkdC5ibccjJG0ewgWnADUTX/lKnJBKJykJ5E6UmaG4p+GKVICCFegt3lY4pW8iq6AzpGAsEW9AhJrJpc2d+dKdjuDGHk+XUqYRlhIYdYSzcYphjAPZEfHsiiDjdJhjZIZ9XSPw2xbtzE7HX2fAr+rs/BD+JvRj2xNSMmf74qZjFC4Zu+LJ2rWWSzqaJySPptOw2boJpcZroPj/AApoUDLl8JfpXWx4+bido9MUIjDu0OFYT5OToM0wi+/+93ScFAAABABEHshyg5JxTq8EtR4bc0LxscZdWoyQg4qDYMUIFv8AwzkZhIwhcyLPnStcrHWaO5qaRfH4iUZbCxNzzAasFG/FFoCClbMrVl17xB7Dz1EhcswjYcMmtc+ep4IfVGXJDfCOTCHRKAQAL4Iv/nn2fAr+rs/BD+pvRj3N6Mb0Tl5ps65B80QrcZd0bHiKjG0TPj0Vwy6EvDeiF8tc/B+6IUDaDB1Yl2a2tFDfA7A9ihdiOagwxnA8uH20VYHMoOFyPA0J8kAAHTaoS21EIKP/AMYOdSFY0DU5LnxV84xcD2Q50ww2/Axdr3QTqaHy4JxTBsoELMAaDQ759ImQQLA0S3mBOTaaaFSFIaGjNo9yTArpgm62BecR1okLzM7rd/X4Ff1dn4Mf3N6MHvKIVMWKkNuFPqkc2RP8aY8U6NbV+twvepMBOVqVAx1fVE8EvWU8eWCKWIR2z4M04JG6/uiQjFnkebHilgBAsEWDpRET8KwIeKEaUAY/8rRonIh3HI8lLWbMsx0N/IvNBD8hHalMdiihJqLDzX/PUwEk6Fl0ipWjwd8TG1avYrK6vGmCeSiGTkN13XK8t/YskmQBcbHA+dkpRC0mu6qx7J1pKRTIjOzX/PUVYMLa9CgIu1BbODc8HSlwIiB2j6C3XNI6SeiNkduSv+vr/r6Sgx76KhgsICyb+0jWBH36wRr8DNGPwxOaFMFFKx4qUsUibPFDLB8Vko4niitJ8USJFaAo4WPFAaFCf+qNA7SFKosn8aUL4CPr8MGLsJqWTyP9FQhe0H5BNZmLeXqyjy7o/vP5GkNLaU7VcFcFGxQDagmlQH/6elGdEdHh1rin4q26OVjtvUKjzf8Aw4UgYaCxWoA+C9ABi6P8V/xn+KcFehOgAAAaR6//2Q==;rounded=0;shadow=0;glass=0;sketch=0;strokeColor=#FF8000;strokeWidth=2;fillColor=none;fontSize=16;fontColor=#4277BB;" vertex="1" parent="1">
          <mxGeometry x="165" y="40" width="243.59" height="104.28" as="geometry" />
        </mxCell>
        <mxCell id="6qygh8IlFuuTyOwgghLc-438" value="" style="shape=image;html=1;verticalAlign=top;verticalLabelPosition=bottom;labelBackgroundColor=#ffffff;imageAspect=0;aspect=fixed;image=https://cdn3.iconfinder.com/data/icons/user-avatars-1/512/users-9-2-128.png;rounded=0;shadow=0;glass=0;sketch=0;strokeColor=#FF8000;strokeWidth=2;fillColor=none;fontSize=16;fontColor=#4277BB;" vertex="1" parent="1">
          <mxGeometry x="897" y="20" width="128" height="128" as="geometry" />
        </mxCell>
      </root>
    </mxGraphModel>
  </diagram>
</mxfile>
